<?xml version="1.0" encoding="UTF-8"?>
<svg width="1200pt" height="1200pt" version="1.1" viewBox="0 0 1200 1200" xmlns="http://www.w3.org/2000/svg">
 <path d="m1119 483.52-505.18-256.08c-2.625-1.3594-5.7656-1.3594-8.3906-0.046875l-524.39 260.81c-3.1875 1.5938-5.2031 4.875-5.2031 8.4375 0.046875 3.5625 2.0625 6.8438 5.2969 8.3906l191.53 92.484v263.02c0 3 1.4062 5.8125 3.8438 7.5469 96.75 70.641 210.1 105.94 323.44 105.94 113.34 0 226.69-35.297 323.44-105.94 2.4375-1.7812 3.8438-4.5938 3.8438-7.5469v-263.72l98.766-49.688v187.08c-26.531 5.2031-46.828 32.016-46.828 64.406 0 33.562 44.062 84.844 49.078 90.609 1.7812 2.0156 4.3594 3.1875 7.0781 3.1875s5.2969-1.1719 7.0781-3.1875c5.0156-5.7188 49.125-57.047 49.125-90.609 0-32.344-20.25-59.109-46.734-64.406v-196.5l74.25-37.359c3.1406-1.5938 5.1562-4.8281 5.1562-8.3438 0-3.5156-1.9688-6.7969-5.1562-8.3906zm-46.312 315.05c0 18.984-22.828 51.562-37.406 69.75-14.578-18.234-37.406-50.766-37.406-69.75 0-25.781 16.781-46.734 37.359-46.781h0.14062c20.578 0.09375 37.312 21 37.312 46.734zm-781.26 57.188v-74.812c93.375 63.609 200.95 95.484 308.53 95.484s215.16-31.875 308.53-95.484v74.812c-185.11 132.71-431.86 132.71-617.06 0zm617.06-97.688c-185.16 132.71-431.86 132.71-617.06 0v-151.5l310.5 149.9c1.3125 0.60938 2.6719 0.9375 4.0781 0.9375 1.4531 0 2.9062-0.32812 4.2188-0.98438l298.26-150.14v151.82zm124.6-235.5-433.18-0.046875c-5.1562 0-9.375 4.2188-9.375 9.375s4.2188 9.375 9.375 9.375h395.95l-389.9 196.26-499.4-241.08 503.02-250.13 484.4 245.58z"/>
</svg>
