<?xml version="1.0" encoding="UTF-8"?>
<svg width="1200pt" height="1200pt" version="1.1" viewBox="0 0 1200 1200" xmlns="http://www.w3.org/2000/svg">
 <path d="m32.203 301.4c1.7812-62.906 31.5-121.69 81-160.45 49.547-38.812 113.77-53.484 175.22-40.172 1.9688 0.42188 3.8438 1.3125 5.3906 2.5312 27.328 19.219 48.141 46.266 59.672 77.531 14.484 39.562 21.891 81.328 21.891 123.42 1.125 29.859-12.844 58.359-37.125 75.797l-66.75 49.125v-0.046875c-20.156 14.391-30.047 39.188-25.266 63.469 10.688 59.062 31.547 115.83 61.594 167.76 29.953 51.984 68.672 98.438 114.52 137.26 18.656 16.219 45.094 20.062 67.641 9.7969l75.891-33.234c27.281-12.328 58.922-10.172 84.234 5.7656 36.469 21.047 68.906 48.375 95.906 80.672 21.562 25.922 34.641 57.844 37.406 91.453 0.14062 2.0156-0.1875 3.9844-0.9375 5.8594-19.406 59.719-64.406 107.72-122.72 131.02-58.312 23.25-123.98 19.406-179.21-10.5l-0.65625-0.375c-138.66-75.516-253.36-188.39-331.18-325.74-80.297-136.36-120.66-292.5-116.58-450.66v-0.28125zm446.39-76.078c-29.719 0.09375-53.812 24.188-53.859 53.953v387.47c0.046875 29.766 24.188 53.906 53.953 53.953h581.9c29.766-0.046875 53.859-24.188 53.906-53.953v-11.625c29.766-0.09375 53.859-24.188 53.906-53.953v-387.47c-0.046876-29.766-24.188-53.906-53.953-53.906h-581.9c-29.766 0.046875-53.859 24.141-53.953 53.906zm635.9 403.18c15.047-0.09375 27.188-12.281 27.234-27.328v-387.47c0-15.047-12.234-27.234-27.281-27.281h-581.9c-15.047 0.046875-27.234 12.234-27.281 27.281v11.625h555.32c29.766 0.046875 53.906 24.188 53.906 53.953zm-46.5 64.5-201.14-201.14-59.062 59.109-0.046875-0.046875c-21.047 21.047-55.172 21.047-76.266 0l-59.062-59.109-201.14 201.19c2.3906 0.70312 4.875 1.0312 7.4062 1.0312h581.9c2.4844 0 5.0156-0.32812 7.4062-1.0312zm-182.29-219.98 201.14-201.14c0.70312 2.3906 1.0312 4.875 1.0312 7.4062v387.47c0 2.5312-0.32812 5.0156-1.0312 7.4062zm-433.26 201.14 201.14-201.14-201.19-201.14c-0.65625 2.3906-1.0312 4.875-1.0312 7.4062v387.47c0 2.5312 0.375 5.0156 1.0312 7.4062zm18.844-421.18 279.05 279.1c10.688 10.641 27.891 10.641 38.578 0l279.1-279.05c-2.3906-0.70312-4.9219-1.0312-7.4062-1.0312h-581.86c-2.4844 0-5.0156 0.32812-7.4062 1.0312zm265.03 740.44-193.97-179.95-41.766 18.281-0.046875 0.046875c-31.781 14.344-69.047 8.9062-95.391-13.922-48.141-40.781-88.875-89.578-120.32-144.24-31.594-54.562-53.531-114.23-64.781-176.29-6.5156-34.266 7.4062-69.188 35.766-89.578l36.703-27-58.828-257.9c-10.594 0.5625-21.094 2.0156-31.453 4.4062-39.891 9.1406-75.656 31.266-101.62 62.953-25.969 31.641-40.688 71.062-41.859 111.98v0.51562c-3.9375 153.14 35.203 304.31 112.92 436.31 75.328 133.08 186.42 242.39 320.68 315.56l0.84375 0.42188 0.046874 0.046875c36.047 19.547 77.578 26.578 118.03 19.969 40.5-6.6562 77.625-26.578 105.52-56.625 7.2188-7.7812 13.781-16.125 19.547-24.984zm-167.44-191.58 180.61 167.58v0.046875c2.7188-5.9062 5.1094-11.953 7.1719-18.094-2.9531-27.328-13.969-53.203-31.594-74.297-25.031-29.812-55.078-55.031-88.828-74.438-17.906-11.391-40.406-12.938-59.719-4.0781l-7.5938 3.3281zm-307.87-678.42 54.797 240.19 6.7031-4.9219v-0.046875c17.344-12.281 27.234-32.531 26.297-53.766 0.09375-38.906-6.7031-77.531-19.969-114.14-9.4688-25.781-26.297-48.188-48.422-64.406-6.4219-1.3125-12.891-2.2969-19.406-2.9062z" fill-rule="evenodd"/>
</svg>
