<?xml version="1.0" encoding="UTF-8"?>
<svg width="1200pt" height="1200pt" version="1.1" viewBox="0 0 1200 1200" xmlns="http://www.w3.org/2000/svg">
 <path d="m999.98 950.02h-499.97c-55.172 0-99.984-44.859-99.984-99.984v-300c0-55.172 44.859-99.984 99.984-99.984h50.016c27.609 0 50.016 22.406 50.016 50.016s-22.406 50.016-50.016 50.016h-50.016v300h500.02v-300h-50.016c-27.656 0-50.016-22.406-50.016-50.016s22.359-50.016 50.016-50.016h50.016c55.125 0 99.984 44.859 99.984 99.984v300c0 55.078-44.906 99.984-100.03 99.984zm-199.97-300v-300c0-55.172-44.859-99.984-99.984-99.984h-500.02c-55.172 0-99.984 44.859-99.984 99.984v300c0 55.125 44.859 99.984 99.984 99.984h50.016c27.609 0 50.016-22.359 50.016-50.016s-22.406-50.016-50.016-50.016h-50.016v-300h500.02v300h-50.016c-27.609 0-50.016 22.359-50.016 50.016s22.406 50.016 50.016 50.016h50.016c55.078 0 99.984-44.859 99.984-99.984z"/>
</svg>
