<?xml version="1.0" encoding="UTF-8"?>
<svg width="1200pt" height="1200pt" version="1.1" viewBox="0 0 1200 1200" xmlns="http://www.w3.org/2000/svg">
 <path d="m93.43 1087.2h164.57v-437.39h-164.57zm50.203-387.3h64.164v337.23h-64.164zm32.082-118.77c43.836 0 79.469-35.633 79.469-79.469 0-8.4492-1.3477-16.531-3.7969-24.121l84.488-52.164c13.961 12.121 32.082 19.469 51.918 19.469 43.836 0 79.469-35.633 79.469-79.469 0-6.7344-0.98047-13.223-2.5703-19.469l77.145-47.633c14.57 15.551 35.145 25.348 58.039 25.348 29.754 0 55.715-16.406 69.305-40.777l64.406 35.879c-0.61328 4.1641-1.1016 8.3281-1.1016 12.734 0 43.836 35.633 79.469 79.469 79.469s79.469-35.633 79.469-79.469c0-8.3281-1.3477-16.285-3.6719-23.879l84.855-54.734c13.836 11.879 31.836 18.98 51.551 18.98 43.836 0 79.469-35.633 79.469-79.469 0-43.836-35.633-79.469-79.469-79.469s-79.469 35.633-79.469 79.469c0 6 0.73438 11.879 1.9609 17.512l-88.406 57.062c-13.102-9.4297-29.02-14.938-46.285-14.938-21.43 0-40.777 8.5703-55.102 22.406l-78.855-43.961c-6.4883-37.348-39.062-65.754-78.246-65.754-43.836 0-79.469 35.633-79.469 79.469 0 2.8164 0.12109 5.5117 0.36719 8.2031l-83.145 51.305c-13.715-11.145-31.102-17.754-49.961-17.754-43.836 0-79.469 35.633-79.469 79.469 0 5.8789 0.73438 11.512 1.8359 17.02l-88.531 54.613c-12.98-9.3047-28.777-14.695-45.918-14.695-43.836 0-79.469 35.633-79.469 79.469 0.003906 43.836 35.883 79.348 79.719 79.348zm848.57-418.29c16.164 0 29.387 13.223 29.387 29.387 0 16.164-13.102 29.387-29.387 29.387-16.164 0-29.387-13.102-29.387-29.387 0-16.281 13.223-29.387 29.387-29.387zm-212.08 139.11c16.164 0 29.387 13.223 29.387 29.387 0 16.164-13.223 29.387-29.387 29.387s-29.387-13.102-29.387-29.387c0-16.164 13.223-29.387 29.387-29.387zm-212.2-87.309c16.164 0 29.387 13.102 29.387 29.387 0 16.285-13.102 29.387-29.387 29.387s-29.387-13.102-29.387-29.387c0-16.285 13.223-29.387 29.387-29.387zm-212.2 121.23c16.164 0 29.387 13.102 29.387 29.387s-13.102 29.387-29.387 29.387c-16.164 0-29.387-13.102-29.387-29.387-0.003906-16.285 13.223-29.387 29.387-29.387zm-212.08 136.41c16.164 0 29.387 13.102 29.387 29.387 0 16.164-13.102 29.387-29.387 29.387s-29.387-13.223-29.387-29.387c0-16.285 13.223-29.387 29.387-29.387zm129.92 614.94h164.57v-550.89h-164.57zm50.082-500.69h64.164v450.61h-64.164zm162 500.69h164.57v-652.04h-164.57zm50.203-601.84h64.164v551.76h-64.164zm162 601.84h164.57v-596.69h-164.57zm50.203-546.61h64.164v496.53h-64.164zm162-164.57v711.18h164.57l0.003906-711.18zm114.25 661.11h-64.164v-610.9h64.164z"/>
</svg>
