<?xml version="1.0" encoding="UTF-8"?>
<svg width="1200pt" height="1200pt" version="1.1" viewBox="0 0 1200 1200" xmlns="http://www.w3.org/2000/svg">
 <path d="m486.3 251.16c-29.359 27.359-46.84 74.332-46.84 125.84 0 1.8672 0.66797 47.242 18.551 93.684 11.609 30.426 27.09 52.848 47.109 68.727l7.7383 6.1406v-312.41l-7.0742 3.8711c-6.8047 3.7383-13.344 8.4062-19.484 14.145zm16.949 273.84c-14.945-14.145-26.824-33.23-36.301-57.785-17.215-44.84-17.883-89.945-17.883-90.348 0-48.711 16.414-93.148 43.773-118.77 3.3359-3.0703 6.8047-5.8711 10.41-8.4062z"/>
 <path d="m654.05 547.95v-201.11c5.6055 18.684 10.41 40.438 10.941 60.055v4.4023l102.89 5.4727v0.93359l95.285-12.812-0.93359-16.414c-8.9414-131.32-96.219-236.74-208.18-251.96v-129.98l-53.516-6.5391-97.285 0.39844v128.78c-31.895 7.3398-61.922 23.488-87.012 46.84-50.574 47.246-79.535 120.38-79.535 200.98 0 2.5352 0.26562 63.121 24.02 127.18 27.891 75.266 77.137 127.18 142.53 150.27v134.65l-74.867-9.3398-91.68 22.957v3.7383c0 60.988 17.215 122.38 48.176 172.55 30.027 48.711 72.062 85.277 118.37 103.29v96.484l90.348 21.219 62.188-28.293v-96.754l113.3-36.301 0.66797-0.53516c54.848-40.836 83.809-109.16 83.809-197.64v-1.1992c1.3359-19.883 2.2695-71.93-17.617-125.45-34.562-93.148-99.156-152-181.89-165.75zm-5.0703-402.09h0.93359c108.63 13.211 193.91 115.57 202.58 243.42l0.39844 7.3398-75.668 10.141c-1.3359-60.188-18.816-119.97-49.777-168.68-26.289-41.637-61.387-73.934-100.36-93.016l21.754 0.93359zm-4.6719-130.78v120.91l-39.234-1.6016v-124.11s39.234 4.8047 39.234 4.8047zm-215.39 774.29 74.332 9.3398v2l-58.719 16.949-78.871-12.277 63.258-15.879zm74.332 21.352v138.92c-28.961-29.895-48.844-75.934-53.246-123.58l53.246-15.348zm142.79 356.05-42.703 19.484 1.6016-93.816 4.4023-1.1992c12.543-2.668 24.82-6.8047 36.699-12.145v87.68zm2.5352-99.555c-13.211 6.6719-27.09 11.609-41.371 14.68l-11.742 3.0703-1.8672 105.16-80.871-18.949v-95.551l-3.2031-1.1992c-45.641-16.816-87.012-52.445-116.64-100.49-29.094-47.109-45.641-104.36-46.707-161.88l93.949 14.68c4.9375 54.316 29.492 106.89 64.457 137.86l8.0078 7.0742v-324.02l-3.3359-1.0664c-64.059-21.621-112.5-71.93-139.86-145.6-23.219-62.457-23.488-121.31-23.488-123.84 0-77.801 27.891-148.53 76.469-193.77 24.82-23.086 54.582-38.836 86.211-45.238l3.8711-0.80078v-127.32l82.605-0.39844v132.79l5.3398 1.7344c46.309 15.879 88.48 50.98 118.77 98.887 30.027 47.375 47.109 105.43 48.309 164.01l-93.418-4.9375c-1.7344-29.895-11.879-63.523-20.418-84.34l-0.39844-1.0664c-12.68-27.625-30.16-50.711-50.312-66.461l-7.7383-6.1406v325.49l3.3359 1.0664c66.461 21.754 118.24 74.602 145.73 148.53 22.688 61.121 23.086 95.02 23.355 122.11v1.6016c0 81.941-30.027 154.67-82.34 199.38-8.8086 7.6055-26.957 18.949-36.965 24.688zm-4.1367-747.33v228.6l-39.367 11.211v-295.2c15.48 14.281 28.961 33.098 39.367 55.383zm199.51 518.73v1.8672c0 85.008-27.359 150.54-79.27 189.5l-80.203 25.621c2.8008-2.1367 5.4727-4.0039 7.6055-5.8711 54.449-46.574 85.676-121.98 85.676-206.72v-1.7344c-0.39844-27.891-0.80078-62.723-24.02-125.45-26.559-71.531-75.133-123.98-137.72-149.2l33.762-9.6094c80.605 12.41 143.59 69.129 177.36 160.14 19.219 51.781 18.281 102.09 16.949 121.44z"/>
 <path d="m603.07 676.07-7.6055-5.2031v318.15l6.6719-2.9375c8.0078-3.4688 15.613-8.2734 22.82-14.547 10.809-9.3398 20.285-21.219 28.023-35.633h0.26562c14.281-24.156 21.484-55.516 21.484-93.148 0-2.4023-0.39844-59.922-21.219-100.36-12.543-30.16-29.227-51.914-50.578-66.594zm41.371 255.83c-7.207 13.211-15.746 24.156-25.621 32.562-4.4023 3.7383-8.9414 6.9414-13.746 9.6094v-284.25c16.148 13.211 29.094 31.629 39.367 55.918zm9.6094-162.41c10.809 34.43 11.078 71.664 11.078 73.531 0 26.691-3.7383 49.91-11.078 69.395v-143.06z"/>
</svg>
