<?xml version="1.0" encoding="UTF-8"?>
<svg width="1200pt" height="1200pt" version="1.1" viewBox="0 0 1200 1200" xmlns="http://www.w3.org/2000/svg">
 <path d="m907.22 547.22c-6-6-13.219-8.3906-21.609-8.3906-15.609 0-26.391 8.3906-31.219 24-1.2188 2.3906-1.2188 4.7812-1.2188 7.2188h-22.781c-4.7812 0-8.3906 3.6094-9.6094 8.3906h-13.219v-10.781c0-4.7812-3.6094-9.6094-9.6094-9.6094h-9.6094v-320.39c0-50.391-19.219-98.391-55.219-134.39-35.906-36.047-82.734-55.266-133.13-55.266s-98.391 19.219-134.39 55.219c-35.996 36-55.219 84-55.219 134.39v320.39h-9.6094c-4.7812 0-9.6094 3.6094-9.6094 9.6094v10.781h-13.219c0-4.7812-4.7812-8.3906-9.6094-8.3906h-20.344c-1.2188-8.3906-4.7812-16.781-10.781-22.781s-13.219-8.3906-22.781-8.3906c-10.781 0-25.219 4.7812-31.219 25.219-3.6094 12-3.6094 25.219-3.6094 37.219v6c0 85.219 33.609 165.61 93.609 225.61 49.219 49.219 111.61 80.391 178.78 90v112.78l-121.22-0.046874c-32.391 0-57.609 26.391-57.609 57.609s26.391 57.609 57.609 57.609h338.39c32.391 0 57.609-26.391 57.609-57.609 0-32.391-26.391-57.609-57.609-57.609h-121.18v-111.61c67.219-9.6094 129.61-40.781 178.78-90 60-60 93.609-140.39 93.609-225.61v-3.6094c0-18 0-44.391-13.172-57.562zm-536.44 97.172c4.7812 0 8.3906-3.6094 9.6094-8.3906h13.219v10.781c0 4.7812 3.6094 9.6094 9.6094 9.6094h20.391c13.219 34.781 36 66 66 87.609 32.391 24 72 37.219 112.78 37.219s79.219-13.219 112.78-37.219c30-21.609 52.781-52.781 66-87.609h20.391c4.7812 0 9.6094-3.6094 9.6094-9.6094l0.046875-10.781h13.219c0 4.7812 4.7812 8.3906 9.6094 8.3906h16.781c-26.438 116.39-128.44 205.22-250.82 205.22-122.39 0-224.39-88.781-246-205.22zm70.828 10.828h316.78c-26.391 64.781-88.781 106.78-158.39 106.78-69.605 0-132-42-158.39-106.78zm409.18-58.828v1.2188c0 9.6094 0 18-1.2188 27.609h-10.781v-37.219h12zm-30 0v21.609h-12v-21.609zm-49.172-296.39h-75.609c-8.3906 0-14.391-6-14.391-14.391 0-8.3906 6-14.391 14.391-14.391h75.609zm0 90h-75.609c-8.3906 0-14.391-6-14.391-14.391 0-8.3906 6-14.391 14.391-14.391h75.609zm0 90h-75.609c-8.3906 0-14.391-6-14.391-14.391 0-8.3906 6-14.391 14.391-14.391h75.609zm-343.22-28.781h75.609c8.3906 0 14.391 6 14.391 14.391 0 8.3906-6 14.391-14.391 14.391h-75.609zm0-90h75.609c8.3906 0 14.391 6 14.391 14.391 0 8.3906-6 14.391-14.391 14.391h-75.609zm0-90h75.609c8.3906 0 14.391 6 14.391 14.391 0 8.3906-6 14.391-14.391 14.391h-75.609zm0 226.78h75.609c18 0 32.391-14.391 32.391-32.391s-14.391-32.391-32.391-32.391h-75.609v-25.219h75.609c18 0 32.391-14.391 32.391-32.391s-14.391-32.391-32.391-32.391h-75.609v-25.219h75.609c18 0 32.391-14.391 32.391-32.391s-14.391-32.391-32.391-32.391h-75.609v-15.609c0-94.781 76.781-171.61 171.61-171.61 94.781 0 171.61 76.781 171.61 171.61v15.609h-75.609c-18 0-32.391 14.391-32.391 32.391s14.391 32.391 32.391 32.391h75.609v25.219h-75.609c-18 0-32.391 14.391-32.391 32.391s14.391 32.391 32.391 32.391h75.609v25.219h-75.609c-18 0-32.391 14.391-32.391 32.391s14.391 32.391 32.391 32.391h75.609v60h-343.22zm-18 78h379.22v61.219h-379.22zm-18 42h-13.219v-21.609h13.219zm-31.172-30v38.391h-10.781c-1.2188-9.6094-1.2188-18-1.2188-27.609v-10.781zm447.56 506.39c0 21.609-18 39.609-39.609 39.609h-338.39c-21.609 0-39.609-18-39.609-39.609s18-39.609 39.609-39.609h338.39c21.609 0 39.609 18 39.609 39.609zm-178.78-57.609h-58.781v-110.39c9.6094 1.2188 19.219 1.2188 28.781 1.2188 9.6094 0 19.219 0 28.781-1.2188v110.39zm272.39-433.18v3.6094c0 153.61-115.22 280.78-264 300-12 1.2188-25.219 2.3906-37.219 2.3906-13.219 0-25.219-1.2188-37.219-2.3906-148.78-18-264-145.22-264-300v-7.2188c0-27.609 2.3906-43.219 16.781-43.219v-9.6094 9.6094c6 0 8.3906 1.2188 9.6094 3.6094 7.2188 6 6 22.781 6 33.609v4.7812c0 72 27.609 139.22 79.219 189.61 51.609 50.387 118.78 79.219 189.61 79.219 70.781 0 139.22-27.609 189.61-79.219 50.391-50.391 79.219-118.78 79.219-189.61v-2.3906c0-8.3906 0-19.219 2.3906-28.781 3.6094-10.781 8.3906-12 14.391-12 3.6094 0 6 1.2188 8.3906 3.6094 7.2188 9.5625 7.2188 31.172 7.2188 44.391z"/>
</svg>
