<?xml version="1.0" encoding="UTF-8"?>
<svg width="1200pt" height="1200pt" version="1.1" viewBox="0 0 1200 1200" xmlns="http://www.w3.org/2000/svg">
 <path d="m900 646.55-409.92 236.9c-16.641 9.6094-37.125 9.6094-53.766 0s-26.859-27.375-26.859-46.594v-473.72c0-19.219 10.219-36.984 26.859-46.594 16.641-9.6094 37.125-9.6094 53.766 0l409.92 236.9c16.641 9.6094 26.906 27.328 26.906 46.547s-10.266 36.938-26.906 46.547zm-300-596.02c-145.74 0-285.52 57.891-388.55 160.92s-160.92 242.81-160.92 388.55 57.891 285.52 160.92 388.55 242.81 160.92 388.55 160.92 285.52-57.891 388.55-160.92 160.92-242.81 160.92-388.55-57.891-285.52-160.92-388.55-242.81-160.92-388.55-160.92z" fill-rule="evenodd"/>
</svg>
