<?xml version="1.0" encoding="UTF-8"?>
<svg width="1200pt" height="1200pt" version="1.1" viewBox="0 0 1200 1200" xmlns="http://www.w3.org/2000/svg">
 <path d="m600 650.02c137.86 0 249.98-112.17 249.98-249.98 0-137.86-112.17-249.98-249.98-249.98-137.86-0.046875-249.98 112.12-249.98 249.94 0 137.86 112.12 250.03 249.98 250.03zm0-400.03c82.688 0 150 67.312 150 150s-67.312 150-150 150-150-67.266-150-150c0-82.688 67.312-150 150-150zm450 650.02v150h-99.984v-150c0-27.609-22.406-50.016-50.016-50.016h-600c-27.562 0-50.016 22.406-50.016 50.016v150h-99.984v-150c0-82.688 67.312-150 150-150h600c82.688 0 150 67.312 150 150z"/>
</svg>
