<?xml version="1.0" encoding="UTF-8"?>
<svg width="1200pt" height="1200pt" version="1.1" viewBox="0 0 1200 1200" xmlns="http://www.w3.org/2000/svg">
 <path d="m1075.2 379.99c-6.0664-33.043-22.289-63.371-46.406-86.754-24.117-23.387-54.934-38.668-88.145-43.711-14.965-23.906-37.457-42.16-63.93-51.891-26.477-9.7266-55.438-10.375-82.32-1.8438-22.562-32.535-57.402-54.484-96.488-60.789-31.605-3.1172-63.309 4.8359-89.699 22.5-22.852-19.527-52.02-30.086-82.074-29.715-30.059 0.375-58.953 11.652-81.312 31.738-28.32-6.168-57.828-3.8594-84.84 6.6445-27.012 10.508-50.328 28.738-67.035 52.418-41.883 0.60156-81.801 17.863-110.93 47.965-22.672 26.316-35.871 59.465-37.5 94.16-36.777 10.516-66.852 37.047-81.863 72.227-10.719 36.277-6.3672 75.348 12.074 108.38-16.18 42.367-16.418 89.168-0.67578 131.7 16.996 36.309 47.855 64.273 85.652 77.625 1.5312 24.609 6.0508 48.938 13.461 72.449 30.637 99.074 128.66 124.16 193.09 124.16h1.6875l-11.25 87.262h0.003906c-0.64062 4.9336 0.71094 9.918 3.7461 13.855 3.0391 3.9414 7.5195 6.5117 12.453 7.1445h2.4375c4.5898 0.039062 9.0312-1.6094 12.488-4.6289 3.4531-3.0234 5.6836-7.2031 6.2617-11.758l13.988-109.65c0.71094-5.7148-1.2383-11.438-5.2891-15.527-4.0156-4.1602-9.75-6.1875-15.488-5.4727-5.8867 0.63672-143.74 15-178.27-96.562-32.438-105 0.78906-190.69 88.801-229.27v-0.003906c4.707-1.8867 8.4531-5.5977 10.375-10.293 1.9258-4.6953 1.8633-9.9648-0.16406-14.617-2.0312-4.6484-5.8594-8.2734-10.609-10.055-4.75-1.7773-10.02-1.5547-14.602 0.61719-32.938 13.676-61.613 35.918-83.051 64.418s-34.855 62.219-38.863 97.656c-22.945-10.691-41.398-29.117-52.125-52.051-12.293-36.16-10.957-75.566 3.75-110.81 2.4844-5.7305 2.0078-12.312-1.2734-17.625-15.543-25.117-20.367-55.414-13.391-84.113 13.902-28.016 40.168-47.863 70.914-53.586 4.0508-1.2344 7.5625-3.8047 9.9688-7.293 2.4023-3.4844 3.5547-7.6836 3.2695-11.906-0.84375-29.684 9.1094-58.664 28.012-81.562 24.945-24.43 58.859-37.496 93.75-36.113 6.2656-0.19141 12.02-3.4961 15.336-8.8125 12.676-20.594 31.688-36.523 54.18-45.402 22.496-8.875 47.262-10.223 70.586-3.8359 75.375 24.188 59.773 109.65 59.062 113.29-0.99609 4.875-0.011718 9.9492 2.7344 14.102 2.7461 4.1562 7.0312 7.0469 11.906 8.0391 4.8789 0.99609 9.9531 0.011718 14.105-2.7344 4.1523-2.7461 7.0469-7.0312 8.0391-11.906 5.9492-26.477 3.9531-54.117-5.7305-79.465-9.6836-25.348-26.633-47.273-48.719-63.035 17.754-8.9688 37.926-11.969 57.523-8.5508 19.594 3.4219 37.559 13.074 51.227 27.523 3.3633 3.332 7.8594 5.2656 12.59 5.418 4.7266 0.15234 9.3398-1.4883 12.91-4.5938 20.883-16.926 47.445-25.23 74.25-23.211 32.957 6.8164 61.41 27.43 78.148 56.625 2.4336 3.5078 5.9883 6.0781 10.078 7.293 4.0898 1.2148 8.4727 0.99609 12.422-0.61719 21.246-8.9688 45.051-9.7891 66.863-2.3125 21.812 7.4805 40.102 22.734 51.375 42.848 2.9922 5.5273 8.5547 9.1875 14.812 9.75 28.207 2.5664 54.703 14.641 75.145 34.246 20.441 19.602 33.613 45.57 37.355 73.645 7.9336 31.176-0.25781 64.254-21.824 88.125-23.293 15.832-52.742 19.609-79.273 10.16-4.4805-17.117-16.797-31.105-33.211-37.715s-34.984-5.0586-50.078 4.1797c-15.09 9.2383-24.918 25.074-26.496 42.699s5.2812 34.953 18.488 46.727c13.211 11.773 31.211 16.602 48.539 13.012 17.328-3.5859 31.934-15.164 39.383-31.215 11.684 2.8203 23.641 4.3555 35.66 4.5742 27.461 1.543 54.363-8.1484 74.531-26.852 20.164-18.699 31.855-44.801 32.383-72.297 25.141 40.773 34.066 89.5 25.012 136.54-5.7148 41.191-27.586 78.418-60.789 103.46-14.23 10.09-32.133 13.523-49.086 9.4141-39.191-7.8008-79.805-4.1289-116.96 10.574-0.94141-32.004-11.277-63.027-29.723-89.199-18.441-26.172-44.18-46.34-74.004-57.988-6.3164-2.0898-13.266-0.67969-18.266 3.7109-4.9961 4.3906-7.293 11.102-6.0352 17.633 1.2539 6.5312 5.8789 11.91 12.152 14.129 29.145 11.324 53.016 33.121 66.93 61.125 13.918 28.004 16.875 60.195 8.293 90.266-15 76.012-72.113 84.301-157.73 88.352l0.003906-0.003906c-28.496 0.035156-56.883 3.5469-84.527 10.465-90.637 28.051-132.75 157.12-130.84 221.44 0.13672 4.8789 2.1719 9.5156 5.6719 12.918 3.5039 3.4023 8.1953 5.3086 13.078 5.3047h0.5625c4.9727-0.14453 9.6836-2.2656 13.094-5.8867 3.4141-3.6211 5.2461-8.4531 5.0938-13.426-1.5391-51.188 33.977-162.71 104.4-184.54v0.003906c24.648-5.8398 49.895-8.7969 75.227-8.8125 76.238-3.75 171.11-8.0625 192.75-118.61 0.33594-1.8008 0.41406-3.4492 0.71094-5.2109v-0.003906c34.441-16.684 73.227-22.23 110.96-15.859 27.074 6.668 55.711 1.5 78.75-14.215 20.719-15.234 38.211-34.426 51.465-56.465s22.004-46.488 25.746-71.934c14.324-80.887-14.062-165-64.836-198.19zm-190.16 144.3c-4.9062 0.007813-9.6133-1.9297-13.09-5.3945-3.4727-3.4609-5.4297-8.1641-5.4336-13.07-0.007812-4.9062 1.9336-9.6133 5.3984-13.082 3.4648-3.4727 8.168-5.4258 13.074-5.4297s9.6133 1.9414 13.082 5.4102 5.418 8.1719 5.418 13.078c0 4.8945-1.9414 9.5938-5.4023 13.059-3.457 3.4648-8.1484 5.418-13.047 5.4297z"/>
 <path d="m282.86 730.46c-2.7656-6.1016-8.5781-10.266-15.246-10.918-6.668-0.65625-13.18 2.2969-17.082 7.7422-3.9023 5.4492-4.6016 12.562-1.8359 18.664 12.977 24.398 32.465 44.723 56.297 58.711 23.832 13.988 51.074 21.094 78.703 20.527 32.16-0.83594 63.863-7.8008 93.414-20.512 11.906 12.75 29.098 19.188 46.449 17.395 17.355-1.793 32.867-11.609 41.914-26.523 9.0508-14.914 10.594-33.207 4.1719-49.426-6.4258-16.223-20.074-28.496-36.883-33.172-16.805-4.6719-34.832-1.207-48.707 9.3672-13.875 10.578-21.996 27.039-21.945 44.484 0 1.1641 0.26172 2.25 0.33594 3.375-133.84 53.285-177.71-35.664-179.59-39.715zm235.35 17.887-0.003906 0.003906c4.9062 0 9.6094 1.9492 13.078 5.418s5.4141 8.1758 5.4102 13.082c-0.003907 4.9023-1.957 9.6055-5.4258 13.07-3.4727 3.4648-8.1797 5.4102-13.086 5.4023-4.9062-0.007813-9.6055-1.9609-13.07-5.4375-3.4609-3.4727-5.4023-8.1797-5.3906-13.086 0.007813-4.8984 1.9609-9.5898 5.4258-13.051 3.4648-3.457 8.1641-5.3984 13.059-5.3984z"/>
 <path d="m335.21 453.98c-0.61328-6.6992-4.7578-12.562-10.867-15.379-6.1094-2.8125-13.258-2.1562-18.75 1.7266-5.4922 3.8828-8.4961 10.402-7.8828 17.102 5.1797 36.832 24.227 70.301 53.25 93.562 34.617 25.602 76.988 38.512 120 36.562 15.898-0.058593 31.773-1.1953 47.516-3.4141 34.113-1.8984 67.105-12.844 95.59-31.715s51.43-44.984 66.484-75.656c15.051-30.676 21.664-64.801 19.16-98.879 16.262-7.3555 28.066-21.988 31.812-39.438 3.75-17.449-1.0039-35.641-12.812-49.023-11.805-13.383-29.262-20.371-47.039-18.828-17.781 1.5391-33.773 11.43-43.102 26.645-9.3242 15.215-10.879 33.953-4.1836 50.496 6.6953 16.543 20.844 28.926 38.125 33.375 1.1992 34.648-6.1484 146.25-149.18 165.98v-0.003906c-23.559 5.3086-47.945 5.8281-71.711 1.5234-23.766-4.3008-46.422-13.34-66.625-26.57-21.246-16.969-35.426-41.227-39.789-68.062zm341.25-145.43c4.9062 0 9.6094 1.9492 13.078 5.418s5.4141 8.1758 5.4102 13.082c-0.003907 4.9062-1.957 9.6094-5.4258 13.074-3.4727 3.4648-8.1797 5.4062-13.086 5.3984-4.9062-0.003907-9.6055-1.9609-13.07-5.4336-3.4609-3.4766-5.4023-8.1836-5.3906-13.09 0.007813-4.918 1.9766-9.625 5.4648-13.09 3.4922-3.4609 8.2188-5.3906 13.133-5.3594z"/>
 <path d="m917.59 428.55c14.863-0.09375 29.609-2.6289 43.652-7.5 4.8867-1.4453 8.9766-4.8125 11.328-9.3359 2.3477-4.5195 2.7578-9.8047 1.1289-14.633-1.625-4.8281-5.1484-8.7891-9.7539-10.965-4.6055-2.1797-9.9023-2.3867-14.668-0.57813-83.25 28.051-134.77-60.676-136.95-64.5-3.3281-5.7773-9.4727-9.3516-16.141-9.3906-6.6641-0.039063-12.852 3.4688-16.246 9.207-3.3906 5.7383-3.4844 12.848-0.23828 18.668 13.676 25.215 33.469 46.582 57.566 62.137 24.094 15.559 51.715 24.805 80.32 26.891z"/>
 <path d="m391.91 283.31c-4.9297-0.64844-9.9141 0.68359-13.859 3.707-3.9453 3.0234-6.5273 7.4922-7.1797 12.418-3.6484 26.289 1.9492 53.031 15.844 75.648 13.895 22.617 35.219 39.699 60.32 48.328 1.6719 17.52 11.539 33.215 26.605 42.312 15.062 9.1016 33.547 10.535 49.836 3.8633 16.285-6.6719 28.453-20.66 32.805-37.715 4.3516-17.055 0.37109-35.16-10.727-48.82-11.102-13.66-28.012-21.258-45.594-20.488-17.582 0.76953-33.766 9.8203-43.629 24.395-16.047-6.4609-29.492-18.066-38.23-33-8.7344-14.934-12.262-32.344-10.031-49.5 0.68359-4.9492-0.64062-9.9688-3.6758-13.938-3.0352-3.9727-7.5312-6.5664-12.484-7.2109zm110.59 116.7c4.9062-0.007813 9.6133 1.9297 13.09 5.3945 3.4727 3.4609 5.4297 8.1641 5.4336 13.07 0.007812 4.9023-1.9336 9.6094-5.3984 13.082s-8.168 5.4258-13.074 5.4297c-4.9062 0.003907-9.6133-1.9453-13.082-5.4102-3.4688-3.4688-5.418-8.1719-5.418-13.078 0.019531-4.8906 1.9688-9.5742 5.4219-13.039 3.457-3.4609 8.1367-5.418 13.027-5.4492z"/>
 <path d="m724.12 710.81c20.004 0 38.484-10.672 48.488-27.992 10-17.324 10-38.668 0-55.988-10.004-17.324-28.484-27.996-48.488-27.996-16.066 0.03125-31.332 7.0195-41.852 19.164-22.879-10.871-48.848-13.367-73.383-7.0586-24.531 6.3125-46.07 21.031-60.867 41.598-3.8984 5.4531-4.5898 12.57-1.8164 18.672 2.7734 6.1016 8.5898 10.262 15.262 10.914 6.6719 0.64844 13.184-2.3086 17.082-7.7617 9.9766-13.668 24.488-23.34 40.945-27.285 16.457-3.9453 33.777-1.9023 48.867 5.7578 0 0.67578-0.22656 1.2734-0.22656 1.9492v0.003906c0.058593 14.832 5.9766 29.043 16.461 39.535 10.488 10.492 24.691 16.418 39.527 16.488zm0-74.477c4.9062 0 9.6094 1.9492 13.078 5.4219 3.4648 3.4688 5.4141 8.1758 5.4102 13.078-0.003906 4.9062-1.957 9.6094-5.4297 13.074s-8.1797 5.4102-13.082 5.4023c-4.9062-0.007812-9.6094-1.9609-13.07-5.4375-3.4648-3.4727-5.4023-8.1836-5.3945-13.086 0.019531-4.8945 1.9766-9.582 5.4414-13.039 3.4609-3.457 8.1523-5.4023 13.047-5.4141z"/>
</svg>
