<?xml version="1.0" encoding="UTF-8"?>
<svg width="1200pt" height="1200pt" version="1.1" viewBox="0 0 1200 1200" xmlns="http://www.w3.org/2000/svg">
 <path d="m122 972 372-372-372-372c-14.246-14.031-22.297-33.176-22.367-53.172-0.070312-19.996 7.8477-39.191 21.996-53.324 14.148-14.129 33.355-22.027 53.352-21.934 19.996 0.09375 39.129 8.168 53.145 22.43l371.88 372 372-372c14.016-14.262 33.148-22.336 53.145-22.43 19.996-0.09375 39.203 7.8047 53.352 21.934 14.148 14.133 22.066 33.328 21.996 53.324-0.070313 19.996-8.1211 39.141-22.367 53.172l-372.12 372 372 372c14.246 14.031 22.297 33.176 22.367 53.172 0.070312 19.996-7.8477 39.191-21.996 53.324-14.148 14.129-33.355 22.027-53.352 21.934-19.996-0.09375-39.129-8.168-53.145-22.43l-371.88-372-372 372c-18.984 18.703-46.469 25.926-72.195 18.973-25.73-6.9531-45.836-27.035-52.816-52.754-6.9844-25.719 0.20703-53.211 18.887-72.219z"/>
</svg>
