<?xml version="1.0" encoding="UTF-8"?>
<svg width="1200pt" height="1200pt" version="1.1" viewBox="0 0 1200 1200" xmlns="http://www.w3.org/2000/svg">
 <path d="m1177.4 833.86c-2.1094-2.3438-12.703-16.359-30.844-35.484-12.281-12.984-28.969-28.125-45.281-44.297-42.281-42.047-93.281-88.969-122.26-118.17 55.359-6.8438 82.969 3.9375 86.672-4.2188 3.6562-8.1562-49.219-47.766-64.359-61.266-15.141-13.453-38.25-34.734-57.562-48.234 23.578-10.172 57.609-10.922 60.047-19.453 2.3906-8.4844-179.63-181.87-207.32-200.48-27.695-18.613-39.938-35.625-48.375-36.891-8.3906-1.2656-22.312 5.5781-43.594 15.703-21.281 10.172-205.26 104.86-233.21 236.11-127.87-124.82-328.87-87.75-381.42 3.2812-6.4688 6.6094 7.1719 11.062 9.6094 16.875-15.281 11.859-24.75 15.797-25.688 19.125-0.9375 3.2812 0.89062 7.9688 8.2969 21.328-7.3594 1.0312-10.969 2.7656-18.891 2.5781-9.8438-0.5625-17.578 1.125-13.594 11.578-9.2812 4.3125-29.25 3.8438-31.453 12.75s21.75 152.11 26.766 172.87c5.0156 20.766 34.453 154.6 39.141 157.03 4.6875 2.3906 98.156-14.578 151.13-20.203 52.969-5.625 131.9-14.297 167.44-20.625 35.531-6.2812 114-13.359 171.79-14.672 1.5938 1.2656 40.406 36.562 73.219 34.031s47.906-12.656 69.328-39.188c13.922 0.1875 306.14-5.8594 348.71-5.8594 42.516 0 105-3.2344 110.91-7.1719 5.9062-3.9844 8.0625-18.844 0.79688-26.953zm-529.97 71.859c-42.375-0.65625-66.375-36.094-72.141-35.953s-120.74 8.4844-172.78 16.781c-52.078 8.2969-206.53 23.906-313.97 41.062-27.141-99.375-46.453-190.74-60.891-293.95 20.391 99.234 62.859 283.22 65.859 286.97 3.0469 3.7969 65.203-10.547 93.938-13.641l0.046875 0.046875c115.36-13.406 365.76-56.906 393.19-46.547 27.434 10.359 39.328 34.594 68.062 32.578 28.688-1.9688 47.109-23.016 52.5-29.578s80.25-4.2656 120-6.6094c70.922-0.375 186-5.0625 213.66-4.5 27.656 0.5625 131.9 3.1406 140.48-1.4062-8.3906 8.3906-75.094 8.5312-96.609 9.5625-66.281 1.3125-361.13 5.7656-366.42 7.0781-5.2969 1.3125-22.453 38.766-64.828 38.109zm268.13-257.39 0.046875-0.046875 0.09375 0.32812c1.875-0.51562 3.7969-0.98438 5.6719-1.4531 54.984 47.016 104.62 98.203 160.13 144.71-134.02-23.859-300.1-39.375-410.76 43.5 55.828-96.188 137.39-158.34 244.36-186.56l0.046875 0.046875 0.09375-0.09375c0.14062-0.046875 0.28125-0.09375 0.42188-0.09375l-0.09375-0.28125zm-13.594 164.95c61.828-0.09375 115.17 3.5156 189.94 13.453 1.0781 1.3594 2.0625 2.7188 3.0938 4.3594-67.922-7.3594-137.11-11.25-205.78-10.266-71.812 1.0781-158.21 9.5156-224.86 34.359 70.5-45.047 175.78-41.766 237.61-41.906zm3.375-7.6406c-67.125 0.32812-161.06 0.98438-228.19 34.172 119.16-83.578 278.76-61.031 413.9-38.156 3.9375 6.2812 7.3125 12.141 10.219 17.906-64.641-5.8594-130.74-15.656-195.94-13.875zm-280.97 45.656c-41.859-17.062-119.44-15.188-182.16-11.531-71.766 4.1719-147.47 16.734-218.34 24.562 62.062-25.547 134.86-44.625 206.68-47.578 69.047-2.8594 138 5.3438 193.82 34.594zm458.81-66.047c-46.734-41.859-104.3-99.844-152.44-140.44 8.25-1.9219 16.594-3.6562 24.891-5.1562 34.781 34.922 117.75 132.89 127.55 145.6zm-292.13-91.266c-39.984 27.656-100.41 77.578-137.39 162.89-1.125-57.469 16.547-96.516 54.562-158.76 38.016-62.242 149.53-146.9 227.58-172.64 40.031 32.297 79.734 67.312 117.38 101.25-118.27-6.4688-222.14 39.609-262.13 67.266zm69.938-143.29c-38.766 23.812-90.656 64.125-117.75 93.328s-95.719 106.73-96.141 198.24c-63.469-102.56-116.39-209.95-169.87-318.19 26.625-112.12 166.26-214.92 269.58-251.16 89.203 67.078 169.22 145.82 245.72 226.31-20.391 3.1875-92.766 27.609-131.53 51.375zm-222.24 291.56c-84.281-69.75-197.72-98.109-275.9-93.891-78.188 4.2188-114.56 16.922-159.32 47.906-17.625-58.734-80.766-261.66-105.38-272.58 82.406-117.42 290.63-88.547 367.74 1.7812 35.953 59.391 55.078 110.72 87.938 171.79 25.547 45.281 59.531 104.2 84.938 144.98zm-439.87-34.594c3.2812 1.3594 41.766-42.047 148.97-50.016 107.2-7.9688 227.29 36.422 294.74 97.875-130.26-86.438-348.56-39.797-458.06 18-31.359-104.39-58.312-209.21-101.34-313.69 6.4688-5.3906 13.5-10.594 20.953-15.375 40.688 77.719 91.453 261.89 94.734 263.26zm-93.281-164.68c4.6406 15.047 40.266 129.05 68.578 228.84-17.344 2.9062-31.688 5.4375-44.906 7.9688-32.859-94.547-54.141-192.42-71.719-290.72 10.031-0.14062 19.547-1.6875 27.703-3.2344 5.8594 17.203 15.703 42.094 20.391 57.141zm18.984 243.42c3.1875 2.8125 34.969-4.0781 52.312-7.0781 1.4531 2.8594 1.0312 4.875 3.0469 6.0938 1.9688 1.2188 15.234-6.7031 21.328-9.8906 50.625-7.5938 148.64-19.078 196.6-23.719s159.61-12.375 197.29-1.8281c17.109 4.7812 29.391 10.781 37.781 15.891 10.078 6.1875 11.719 10.734 14.344 11.062s5.7656-5.2031 15.141-11.062c6.6562-4.1719 15.141-8.6719 24.656-11.906 22.922-7.7812 78.094-20.297 202.22-25.172s205.22 13.781 214.69 9.4219c3.1406-1.4531 3.2344-4.5469-2.0625-10.172 47.109 3.2812-126.42-175.55-136.87-190.13 1.125-0.1875 2.2031-0.375 3.3281-0.51562 36.797 33.375 71.297 67.547 107.39 101.58 25.172 22.266 101.53 97.781 98.109 102.05s-23.766 4.4062-30.609 4.4531-216.84 0.09375-329.53 3c-37.547 1.5-108.09 3.7031-114.89 8.25s-21.797 29.719-52.828 28.781c-31.078-0.9375-42.047-27.703-65.156-32.953-35.578-8.0625-337.82 38.344-480.52 60.094-17.109-55.688-32.859-132.56-48.469-198.89-10.969-46.5-19.875-87.047-23.109-109.17 7.0312-1.8281 15.797-2.8594 22.453-4.9688 6.7031 38.766 16.312 92.25 29.156 142.13 19.359 75.281 42.328 142.92 44.25 144.61z"/>
 <path d="m397.4 553.08c0-2.25-48.562-21.703-104.67-18.094-56.109 3.6562-95.297 26.391-95.297 28.734 0 2.3906 33.609-18.047 95.953-21.141s103.97 12.703 103.97 10.453z"/>
 <path d="m432.56 602.63c0.98438-2.1094-29.156-18.375-85.266-21.797-56.109-3.375-98.484 13.172-98.484 15.656s53.344-10.125 97.172-8.3906c43.875 1.7344 85.594 16.641 86.578 14.531z"/>
 <path d="m382.45 651.79c-66.469-8.8125-127.22 10.125-127.22 14.062-0.046875 3.9375 60.844-13.688 126.14-5.9531 65.344 7.7344 116.44 33.094 116.44 30.094s-48.891-29.344-115.36-38.156z"/>
 <path d="m716.29 389.16c-2.625-2.0625-34.5 6.3281-83.578 45.469-49.078 39.094-76.078 94.219-73.219 95.859 2.8594 1.6875 28.031-51.938 77.25-91.031s82.125-48.281 79.547-50.297z"/>
 <path d="m643.4 515.48c3.2344 2.3906 28.266-31.828 74.297-64.266 45.984-32.438 79.312-40.969 77.344-44.062-1.9219-3.0938-44.25 12.797-81.938 39.234-37.734 26.438-72.891 66.703-69.703 69.094z"/>
 <path d="m701.53 539.86c-51.891 38.25-81.75 86.672-77.625 89.484s25.922-40.406 81.75-82.781 115.22-58.219 112.64-61.969-64.781 17.016-116.72 55.266z"/>
</svg>
