<?xml version="1.0" encoding="UTF-8"?>
<svg width="1200pt" height="1200pt" version="1.1" viewBox="0 0 1200 1200" xmlns="http://www.w3.org/2000/svg">
 <path d="m600 611.68c-44.953 0-85.688-18.234-115.17-47.719s-47.719-70.219-47.719-115.17 18.234-85.688 47.719-115.17c23.344-23.344 53.672-39.609 87.609-45.375v-53.016c0-15.234 12.328-27.562 27.562-27.562s27.562 12.328 27.562 27.562v53.016c33.891 5.8125 64.266 22.078 87.609 45.375 29.484 29.484 47.719 70.219 47.719 115.17 0 15.234-12.328 27.562-27.562 27.562s-27.562-12.328-27.562-27.562c0-29.766-12.047-56.719-31.594-76.219-19.453-19.453-46.406-31.547-76.172-31.547-29.719 0-56.719 12.047-76.172 31.547-19.5 19.5-31.547 46.453-31.547 76.219 0 29.719 12.047 56.672 31.547 76.172 19.453 19.453 46.453 31.547 76.172 31.547 44.953 0 85.688 18.234 115.17 47.719s47.719 70.219 47.719 115.17-18.234 85.688-47.719 115.17c-23.344 23.344-53.672 39.609-87.609 45.375v53.016c0 15.234-12.328 27.562-27.562 27.562s-27.562-12.328-27.562-27.562v-53.016c-33.891-5.8125-64.266-22.078-87.609-45.375-29.484-29.484-47.719-70.219-47.719-115.17 0-15.234 12.328-27.562 27.562-27.562s27.562 12.328 27.562 27.562c0 29.719 12.047 56.719 31.547 76.172 19.453 19.5 46.453 31.594 76.172 31.594 29.766 0 56.719-12.047 76.172-31.594 19.5-19.453 31.594-46.453 31.594-76.172s-12.047-56.719-31.594-76.172c-19.453-19.5-46.406-31.594-76.172-31.594zm-335.86-386.48c10.781 10.781 10.781 28.219 0 39s-28.172 10.781-39 0l-40.922-40.969c-10.781-10.781-10.781-28.172 0-38.953s28.172-10.781 38.953 0zm-166.69 347.26c15.234 0 27.562 12.328 27.562 27.562s-12.328 27.562-27.562 27.562h-57.938c-15.234 0-27.562-12.328-27.562-27.562s12.328-27.562 27.562-27.562zm127.69 363.42c10.781-10.781 28.219-10.781 39 0s10.781 28.172 0 39l-40.969 40.922c-10.781 10.781-28.172 10.781-38.953 0s-10.781-28.172 0-38.953zm347.26 166.69c0-15.234 12.328-27.562 27.562-27.562s27.562 12.328 27.562 27.562v57.938c0 15.234-12.328 27.562-27.562 27.562s-27.562-12.328-27.562-27.562zm443.34-125.72c10.781 10.781 10.781 28.172 0 38.953s-28.172 10.781-38.953 0l-40.969-40.922c-10.781-10.781-10.781-28.219 0-39s28.172-10.781 39 0zm144.71-404.39c15.234 0 27.562 12.328 27.562 27.562s-12.328 27.562-27.562 27.562h-57.938c-15.234 0-27.562-12.328-27.562-27.562s12.328-27.562 27.562-27.562zm-183.66-388.18c10.781-10.781 28.172-10.781 38.953 0s10.781 28.172 0 38.953l-40.922 40.969c-10.781 10.781-28.219 10.781-39 0s-10.781-28.172 0-39zm-404.39-144.71c0-15.234 12.328-27.562 27.562-27.562s27.562 12.328 27.562 27.562v57.938c0 15.234-12.328 27.562-27.562 27.562s-27.562-12.328-27.562-27.562z"/>
</svg>
