<?xml version="1.0" encoding="UTF-8"?>
<svg width="1200pt" height="1200pt" version="1.1" viewBox="0 0 1200 1200" xmlns="http://www.w3.org/2000/svg">
 <path d="m647.34 889.6c30.562 42.562 55.875 93.938 77.25 156.98 0.84375 2.4844 3.1875 4.0781 5.6719 4.0781 0.46875 0 0.9375-0.046875 1.4531-0.1875l67.547-16.688c3.1875-0.79688 5.1562-3.9844 4.4062-7.1719l-28.266-122.68c18.703 5.5312 38.531 8.2969 58.078 8.2969 4.0781 0 8.2031-0.09375 12.234-0.32812 78.938-4.5 161.11-53.344 157.45-149.68 29.156-5.3438 51.375-16.031 67.688-32.156 30.234-29.906 38.438-77.156 25.125-144.47 20.156-16.781 26.344-60.422 12.375-93.469-12.703-30.047-38.531-49.359-65.391-50.062 19.594-46.781-14.766-93.562-57.703-118.73-11.625-6.8438-23.766-11.953-35.812-15.422-58.547-104.06-156.71-142.03-226.55-126.74-0.046875-0.046875-0.046875-0.09375-0.09375-0.14062-36.656-37.594-94.781-41.766-172.97-12.328-61.406-21.75-120.37-7.875-175.4 41.297-78.141-6.2812-132.84 25.453-162.84 94.406-51.516 9.5625-76.594 39.797-74.812 89.812-27.984 25.406-48.984 62.812-52.359 97.5-2.8594 29.203 6.9375 54.047 27.656 70.359-5.6719 42.938 2.8594 76.5 25.453 99.75 25.453 26.25 69.281 39.422 130.64 39.422 18.141 0 37.922-1.2188 59.156-3.5156-2.0156 38.812 11.531 75.094 39.047 100.03 24.609 22.266 57.516 33.328 96.656 33.281 32.156 0 68.578-7.6406 107.91-22.5 17.016 47.484 41.297 73.453 76.406 81.047zm197.68 10.359c-72.516 4.1719-152.76-31.078-160.64-117.61 37.688-1.9688 76.031-13.828 115.97-36.328 82.078 17.906 144.42 24 190.87 18.141 2.4375 87.281-73.406 131.63-146.21 135.79zm-470.53-111.05c-36.188-32.766-45.469-87.75-23.578-140.06 23.859-57.047 90.797-115.64 207.37-108.98 1.5469 0.09375 3.0938-0.42188 4.2656-1.4531 72.281-62.344 136.6-77.438 196.69-46.078 2.9531 1.5469 6.5625 0.375 8.1094-2.5312 1.5469-2.9531 0.375-6.5625-2.5312-8.1094-8.1562-4.2188-16.312-7.6875-24.562-10.406 25.922-9.375 42.281-28.969 48.328-58.547 0.65625-3.2344-1.4062-6.4219-4.6875-7.0781-3.2344-0.65625-6.4219 1.4062-7.0781 4.6875-5.5312 26.953-20.016 43.688-44.344 51.047-2.8594 0.89062-4.5 3.7031-4.0781 6.6094-53.672-12.562-110.25 7.1719-171.79 59.766-34.312-1.6875-64.406 2.2031-90.703 9.8438-10.547-21.516-15.75-51.281-15.703-90.984 0-3.3281-2.6719-6-6-6s-6 2.6719-6 6c-0.046875 41.156 5.1562 71.438 16.125 94.641-19.969 6.9375-37.406 16.172-52.453 26.906-11.438-30.844-38.25-46.641-80.062-46.828-3.2812 0-6 2.6719-6 6s2.6719 6 6 6c37.688 0.14062 60.469 13.5 69.703 40.922 0.1875 0.51562 0.60938 0.79688 0.89062 1.2188-24.891 20.25-42.328 44.625-52.453 68.766-5.7656 13.734-9.4688 27.656-11.297 41.391-90.422 10.172-151.78-0.5625-182.39-32.062-20.531-21.094-27.797-52.453-21.75-93.234 0.32813-2.25-0.60937-4.4531-2.4375-5.7656-24.422-17.438-27.422-43.172-25.594-61.641 4.2656-43.734 38.906-92.25 78.938-110.44 16.641-7.5938 41.438-12.938 65.578 3.6562-1.6406 8.25-2.7656 16.969-3.2812 26.391-0.1875 3.2812 2.3438 6.1406 5.6719 6.3281h0.32813c3.1875 0 5.8125-2.4844 6-5.6719 3.4219-63.609 33.375-96.234 91.5-99.797 1.8281-0.09375 3.4688-1.0312 4.5-2.4844 34.125-47.812 73.266-66.141 119.67-56.062 17.391 3.75 34.078 1.7812 48.234-5.8125l20.109-10.781c2.9062-1.5469 4.0312-5.2031 2.4375-8.1094-1.5469-2.9062-5.2031-4.0312-8.1094-2.4375l-20.109 10.781c-11.625 6.2344-25.5 7.875-40.031 4.6875-50.109-10.875-93.938 8.8125-130.31 58.547-49.594 3.8438-80.906 28.125-93.656 72.281-21.75-13.172-47.578-14.109-73.547-2.3438-7.3594 3.3281-14.531 7.6875-21.422 12.75 1.6875-39.188 23.297-61.219 67.875-68.578 2.0625-0.32812 3.75-1.6875 4.5469-3.6094 28.125-67.406 78.797-96.75 154.6-89.906 1.6406 0.14062 3.3281-0.42188 4.5938-1.5469 53.391-48.562 108.09-61.641 167.26-39.938 1.3594 0.51562 2.8594 0.46875 4.2188-0.046875 70.781-27.047 123.61-25.594 157.22 4.125-46.5 15.609-74.109 54.891-74.812 106.97-54.75 29.203-75 73.969-61.828 136.74 0.60938 2.8125 3.0938 4.7812 5.8594 4.7812 0.42188 0 0.84375-0.046874 1.2188-0.14062 3.2344-0.65625 5.3438-3.8438 4.6406-7.125-12.281-58.781 6.375-98.578 58.828-125.29 2.0156-1.0312 3.2812-3.1406 3.2812-5.3906-0.5625-51.188 27.188-89.109 74.156-101.48 63.469-16.734 155.21 16.359 212.72 110.48-7.9688-1.2188-15.797-1.7344-23.297-1.3594-27.656 1.5938-49.266 14.297-62.531 36.844-10.875-10.828-25.219-20.156-43.453-27.75-3.0469-1.2656-6.5625 0.1875-7.8281 3.2344s0.1875 6.5625 3.2344 7.8281c38.156 15.891 57.75 38.156 59.859 67.969 0.23438 3.1875 2.8594 5.5781 6 5.5781h0.42188c3.3281-0.23438 5.8125-3.0938 5.5781-6.4219-1.125-15.703-6.6562-29.625-16.172-41.906 1.0312-0.51562 2.0156-1.2188 2.6719-2.2969 14.062-24 36.562-30.188 52.969-31.125 10.5-0.60938 21.703 0.70312 33.094 3.75h0.09375c11.812 3.1406 23.812 8.1562 35.297 14.906 40.922 24 73.594 69.281 48.516 112.03-1.1719 2.0156-1.0781 4.5 0.23438 6.4688 1.3125 1.9219 3.6562 2.8594 5.9531 2.5312 24.609-4.2188 51.281 13.547 63.375 42.094 13.312 31.5 4.9688 70.922-11.203 81.188-2.1094 1.3125-3.1875 3.8438-2.6719 6.2812 13.5 65.016 6.6562 109.92-21.047 137.26-39.328 38.906-122.53 42.75-261.74 12.141-1.5-0.32812-3-0.09375-4.2656 0.65625-56.344 32.203-109.03 42.891-161.11 32.672-1.3594-0.28125-2.7656-0.046875-4.0312 0.60938-111.42 60.375-205.03 68.062-256.78 21.281zm260.63-9.6562c12.375 2.2969 24.797 3.375 37.219 3.4219 5.2031 60.938 42.656 98.719 89.672 116.77l28.594 124.13-56.438 13.969c-21.75-62.766-47.438-114.09-78.469-156.84-0.89062-1.2188-2.25-2.0625-3.7031-2.3438-31.828-6.0938-54.047-29.766-69.797-74.062 17.156-7.0781 34.781-15.281 52.922-25.031zm-104.02-141.84c-43.688 10.5-71.672 36.094-90.797 83.016-0.9375 2.3438-3.1875 3.75-5.5312 3.75-0.75 0-1.5-0.14063-2.25-0.46875-3.0938-1.2656-4.5469-4.7344-3.2812-7.8281 18.844-46.359 47.344-74.109 88.734-87.047-6.9375-5.7656-11.812-13.078-14.297-21.844-0.89062-3.1875 0.98438-6.5156 4.1719-7.4062 3.1875-0.9375 6.5156 0.98437 7.4062 4.1719 3.4688 12.422 13.266 20.812 29.109 24.891 34.219 8.8125 87.844-6.1875 112.55-31.406 11.438-11.672 15.516-23.906 12.047-36.328-0.89062-3.1875 0.98438-6.5156 4.1719-7.4062 3.1875-0.89062 6.5156 0.98438 7.4062 4.1719 2.1562 7.6875 2.1094 15.375 0.09375 22.828 108.47 22.969 177.52-21.984 210.79-137.68 0.9375-3.1875 4.2188-5.0156 7.4062-4.125 3.1875 0.9375 5.0156 4.2188 4.125 7.4062-29.109 101.25-86.625 152.26-171.28 152.26-17.438 0-36-2.2031-55.734-6.5625-2.6719 4.7344-6.0469 9.3281-10.406 13.781-22.172 22.641-63.703 37.5-99.094 37.5-8.8594 0-17.344-0.9375-24.984-2.9062-3.375-0.89062-6.4688-1.9688-9.4688-3.1875-0.375 0.1875-0.60938 0.375-0.89062 0.42188zm59.156 66.422c-11.812 18.75-30.562 29.812-55.828 33-0.28125 0.046874-0.51562 0.046874-0.75 0.046874-3 0-5.5781-2.2031-5.9531-5.25-0.42188-3.2812 1.9219-6.2812 5.2031-6.7031 23.531-2.9531 39.75-13.219 49.5-31.453 1.4531-2.7188 4.7812-3.8906 7.5938-2.7188 50.25 21.141 93.891 10.078 133.4-33.844 1.6406-1.8281 4.2188-2.4375 6.5156-1.6406 51.141 18.656 96.703 18.656 139.31 0.14062 3.0469-1.3125 6.5625 0.09375 7.875 3.0938 1.3125 3.0469-0.09375 6.5625-3.0938 7.875-44.531 19.359-91.781 19.828-144.47 1.5-40.781 43.781-87.656 55.781-139.31 35.953zm321.74-100.97c-1.2656-3.0469 0.23438-6.5625 3.2812-7.8281 30.141-12.328 49.453-29.438 57.422-50.859 9.0469-24.422 3.9375-55.875-15.234-93.375-1.5-2.9531-0.32812-6.5625 2.625-8.0625s6.5625-0.32813 8.0625 2.625c20.766 40.641 26.062 75.281 15.797 103.03-1.2656 3.4219-2.8125 6.6562-4.5469 9.8906 19.125 9.9375 31.828 23.203 37.594 39.609 7.4531 21.188 3.375 47.766-12.047 78.891-1.0312 2.1094-3.1875 3.3281-5.3906 3.3281-0.89062 0-1.7812-0.1875-2.6719-0.60938-2.9531-1.4531-4.1719-5.0625-2.7188-8.0625 13.969-28.172 17.812-51.562 11.484-69.609-4.8281-13.688-16.031-24.844-32.953-33.375-11.578 15.328-29.203 28.031-52.922 37.734-0.75 0.28125-1.5 0.46875-2.25 0.46875-2.3438-0.046874-4.5938-1.4531-5.5312-3.7969zm-138.14-336.05c1.4062 3 0.046876 6.5625-2.9531 7.9688-60.656 27.797-80.906 67.172-62.016 120.42 1.125 3.1406-0.51562 6.5625-3.6562 7.6875-0.65625 0.23437-1.3125 0.32812-2.0156 0.32812-2.4844 0-4.7812-1.5469-5.6719-3.9844-21.094-59.391 1.875-104.91 68.297-135.37 3.0938-1.3594 6.6562-0.046875 8.0156 2.9531zm-520.03 348.32c-1.0312 2.1562-3.1875 3.375-5.3906 3.375-0.89063 0-1.7812-0.1875-2.625-0.60938-51.797-25.172-74.156-60.375-66.469-104.72 0.5625-3.2812 3.6562-5.4375 6.9375-4.875s5.4375 3.6562 4.875 6.9375c-6.75 38.953 12.844 69 59.906 91.875 3 1.4531 4.2188 5.0156 2.7656 8.0156zm295.4-321.84c1.2188 3.0938-0.23438 6.5625-3.3281 7.7812-31.5 12.703-48.375 37.406-54.469 79.641 11.766 6.7031 20.625 17.109 23.859 32.109 0.70312 3.2344-1.3594 6.4219-4.5938 7.125-3.2344 0.75-6.4219-1.3594-7.125-4.5938-3.6562-16.922-16.969-24.75-27.469-28.312-13.969-4.7812-32.391-5.25-50.531-1.3594-32.906 7.125-65.297 28.734-58.688 59.297 0.375 1.8281-0.09375 3.75-1.3125 5.2031-1.2656 1.4062-3.1406 2.1562-4.9688 2.0625-35.484-2.5312-61.219 3.2812-76.406 17.25-11.625 10.688-17.625 26.719-17.859 47.719-0.046875 3.2812-2.7188 5.9062-6 5.9062h-0.09375c-3.3281-0.046874-5.9531-2.7656-5.9062-6.0938 0.28125-24.469 7.5938-43.453 21.703-56.438 16.594-15.281 42.797-22.266 78.047-20.812-1.6406-25.922 17.812-45.703 42.844-57.234-9-17.25-14.156-33.703-15.375-50.016-0.23438-3.2812 2.25-6.1875 5.5312-6.4219 3.4219-0.23438 6.1875 2.25 6.4219 5.5312 1.125 14.953 6 30.234 14.578 46.453 4.875-1.6875 9.8906-3.1406 14.906-4.2188 19.078-4.1719 39.797-4.125 56.906 1.6406 4.9219-31.547 17.391-67.875 61.453-85.641 3.1406-1.125 6.6094 0.32813 7.875 3.4219z"/>
</svg>
