<?xml version="1.0" encoding="UTF-8"?>
<svg width="1200pt" height="1200pt" version="1.1" viewBox="0 0 1200 1200" xmlns="http://www.w3.org/2000/svg">
 <path d="m396 939h-168c-6.6289 0-12-5.3711-12-12v-202.32c0-6.6289 5.3711-12 12-12h168c3.1836 0 6.2344 1.2656 8.4844 3.5156s3.5156 5.3008 3.5156 8.4844v202.32c0 3.1836-1.2656 6.2344-3.5156 8.4844s-5.3008 3.5156-8.4844 3.5156zm-156-24h144v-178.32h-144z"/>
 <path d="m684 939h-168c-6.6289 0-12-5.3711-12-12v-382.32c0-6.6289 5.3711-12 12-12h168c3.1836 0 6.2344 1.2656 8.4844 3.5156s3.5156 5.3008 3.5156 8.4844v382.32c0 3.1836-1.2656 6.2344-3.5156 8.4844s-5.3008 3.5156-8.4844 3.5156zm-156-24h144v-358.32h-144z"/>
 <path d="m972 939h-168c-6.6289 0-12-5.3711-12-12v-622.32c0-6.6289 5.3711-12 12-12h168c3.1836 0 6.2344 1.2656 8.4844 3.5156s3.5156 5.3008 3.5156 8.4844v622.32c0 3.1836-1.2656 6.2344-3.5156 8.4844s-5.3008 3.5156-8.4844 3.5156zm-156-24h144v-598.32h-144z"/>
 <path d="m594.48 403.8c-6.6289 0-12-5.375-12-12v-106.8h-106.8c-6.6289 0-12-5.3711-12-12s5.3711-12 12-12h130.8v130.8c0 3.1836-1.2656 6.2344-3.5156 8.4844s-5.3008 3.5156-8.4844 3.5156z"/>
 <path d="m228 651.48c-4.875 0.027343-9.2812-2.8945-11.152-7.3984-1.8711-4.5039-0.82812-9.6875 2.6328-13.121l366.6-366.96c4.7617-4.0781 11.859-3.8047 16.293 0.62891s4.707 11.531 0.62891 16.293l-366.48 367.08c-2.2656 2.2461-5.3281 3.5-8.5195 3.4805z"/>
</svg>
