<?xml version="1.0" encoding="UTF-8"?>
<svg width="1200pt" height="1200pt" version="1.1" viewBox="0 0 1200 1200" xmlns="http://www.w3.org/2000/svg">
 <path d="m258.56 562.87 241.78-241.78c29.25-29.25 29.25-76.828 0-106.08l-35.344-35.344c-29.25-29.25-76.828-29.25-106.08 0l-241.74 241.78c-29.25 29.25-29.25 76.828 0 106.08l35.344 35.344c14.625 14.625 33.844 21.938 53.062 21.938 19.172 0 38.344-7.3125 52.969-21.938zm-70.688-35.344-35.344-35.344c-9.75-9.75-9.75-25.594 0-35.344l241.78-241.78c4.875-4.875 11.297-7.3125 17.672-7.3125 6.4219 0 12.797 2.4375 17.672 7.3125l35.344 35.344c9.75 9.75 9.75 25.594 0 35.344l-241.78 241.78c-9.75 9.7031-25.641 9.7031-35.344 0zm761.06 228.19c14.484 14.484 22.312 33.328 22.312 53.344s-7.8281 38.859-21.984 53.016c-13.219 13.219-30.469 20.766-48.984 21.797-0.98438 17.812-8.1562 35.344-21.75 48.938-14.156 14.156-33 21.984-53.016 21.984-5.5312 0-10.922-0.65625-16.172-1.7812-3.4219 12.328-9.8906 23.625-19.172 32.859-14.625 14.625-33.797 21.891-53.016 21.891-5.4375 0-10.875-0.65625-16.219-1.8281-3.3281 12.094-9.6562 23.484-19.125 32.953-14.672 14.625-33.844 21.938-53.062 21.938-19.172 0-38.391-7.3125-53.016-21.938-9.75-9.75-9.75-25.594 0-35.344s25.594-9.75 35.344 0c9.75 9.7031 25.594 9.75 35.391-0.046875 9.75-9.7031 9.75-25.594-0.046875-35.344l-35.344-35.344c-9.75-9.75-9.75-25.594 0-35.344s25.594-9.75 35.344 0l53.016 53.016c9.75 9.75 25.594 9.75 35.344 0 4.7344-4.7344 7.3125-10.969 7.3125-17.672 0-6.6562-2.625-12.938-7.3125-17.672l-72.469-72.469c-9.75-9.75-9.75-25.594 0-35.344s25.594-9.75 35.344 0l90.141 90.141c9.4688 9.4219 25.922 9.4688 35.344 0 9.75-9.75 9.75-25.594 0.046875-35.344l-115.17-115.17c-9.75-9.75-9.75-25.594 0-35.344s25.594-9.75 35.344 0l115.12 115.12c9.7969 9.7969 25.594 9.7031 35.391 0 4.7344-4.7344 7.3125-11.016 7.3125-17.672 0-6.7031-2.5781-12.938-7.3125-17.672l-206.21-198.37c-9.9375-9.5625-10.266-25.406-0.70312-35.344s25.406-10.266 35.344-0.70312zm-421.45 87.281c1.1719-5.2969 1.8281-10.688 1.8281-16.219 0-20.062-7.7812-38.859-21.938-53.016-9.6562-9.7031-21.375-16.078-33.75-19.359 4.5938-20.484 1.2188-42.234-11.25-59.531-12.984-18.094-33.047-29.438-55.031-31.219-0.84375-0.046875-1.6875-0.046875-2.5781-0.046875-0.5625-14.016-4.7344-27.75-13.172-39.422-12.984-18.047-33.047-29.438-55.031-31.219-22.031-1.7344-43.5 6.1406-59.109 21.75l-53.016 53.016c-14.156 14.156-21.984 33-21.984 53.016 0 20.062 7.8281 38.906 21.938 53.016 13.219 13.219 30.469 20.766 48.984 21.797 0.98438 17.812 8.1562 35.344 21.75 48.938s31.125 20.766 48.984 21.75c0.9375 17.812 8.1562 35.391 21.75 48.984 13.219 13.172 30.469 20.766 48.938 21.75 0.98438 18.469 8.5781 35.766 21.75 48.938 14.625 14.625 33.844 21.938 53.062 21.938s38.391-7.3125 53.016-21.938l15.797-15.75c26.766-26.812 31.078-69.141 9.9375-98.438-10.078-14.203-24.562-24.141-40.875-28.734zm-274.97-122.29c0-6.6562 2.625-12.938 7.3125-17.672l53.016-53.016c4.7344-4.7344 11.062-7.3125 17.672-7.3125 0.65625 0 1.3594 0.046875 2.0625 0.09375 7.4062 0.60938 13.969 4.3594 18.469 10.641 6.8438 9.4688 4.7812 24.281-4.6406 33.797l-51.234 51.188c-9.4219 9.4688-25.875 9.4688-35.344-0.046875-4.6875-4.7344-7.3125-10.969-7.3125-17.672zm78.047 53.016 53.016-53.016c4.7344-4.7344 11.062-7.3125 17.672-7.3125 0.70312 0 1.3594 0.046875 2.0625 0.09375 7.4531 0.60938 13.969 4.3594 18.469 10.594 6.8438 9.5156 4.7812 24.422-4.7344 33.891l-51.141 51.141c-9.75 9.75-25.594 9.7969-35.344 0-9.75-9.75-9.75-25.641 0-35.391zm70.688 70.734 35.344-35.344c4.875-4.875 11.297-7.3125 17.672-7.3125 6.4219 0 12.797 2.4375 17.672 7.3125 4.7344 4.7344 7.3125 10.969 7.3125 17.672 0 6.6562-2.625 12.938-7.3125 17.672l-35.391 35.344c-9.4219 9.4688-25.875 9.4688-35.344 0-9.7031-9.7031-9.7031-25.594 0.046875-35.344zm121.87 90.281-15.797 15.75c-9.4219 9.375-25.922 9.4219-35.344 0-4.7344-4.7344-7.3125-10.969-7.3125-17.672 0-6.6562 2.625-12.938 7.3125-17.672l17.719-17.672c4.7344-4.7344 11.062-7.3125 17.672-7.3125 0.65625 0 1.3594 0.046875 2.0156 0.09375 7.4531 0.60938 13.969 4.3594 18.469 10.594 6.8438 9.5156 4.7344 24.422-4.7344 33.891zm559.69-513.28-229.26-229.26c-28.312-28.312-77.719-28.359-106.08 0l-35.344 35.344c-19.922 19.922-26.25 48.375-19.031 73.734h-71.344c-19.828 0-38.531 7.6875-52.641 21.609l-123.74 121.97c-14.859 14.672-23.109 34.266-23.203 55.172s8.0156 40.547 22.781 55.312c15.188 15.188 35.109 22.781 55.031 22.781s39.844-7.5938 55.031-22.781l48-48c4.7344-4.7344 11.016-7.3125 17.672-7.3125h104.3c13.828 0 24.984-11.203 24.984-24.984 0.046875-13.828-11.156-25.031-24.938-25.031h-104.3c-20.016 0-38.859 7.7812-53.062 21.984l-48 48c-10.875 10.828-28.5 10.828-39.375 0-5.2969-5.2969-8.2031-12.328-8.1562-19.781 0.046875-7.5 2.9531-14.484 8.2969-19.734l123.74-121.97c4.6875-4.6406 10.922-7.1719 17.531-7.1719h108.05l195.28 195.28-24.328 97.406c-3.375 13.359 4.7812 26.953 18.188 30.281 2.0156 0.51562 4.0781 0.75 6.0938 0.75 11.203 0 21.375-7.5938 24.234-18.938l18.984-75.984c8.2969 3.0938 17.109 4.7812 26.203 4.7812 20.016 0 38.859-7.7812 53.016-21.984l35.344-35.344c29.344-29.297 29.344-76.875 0.046875-106.12zm-35.344 70.734-35.344 35.344c-9.4688 9.4688-25.875 9.4219-35.344 0l-229.26-229.26c-9.75-9.75-9.75-25.594 0-35.344l35.344-35.344c4.7344-4.7344 11.016-7.3125 17.672-7.3125 6.7031 0 12.938 2.625 17.672 7.3125l229.26 229.22c9.75 9.75 9.75 25.594 0 35.391z"/>
</svg>
