<?xml version="1.0" encoding="UTF-8"?>
<svg width="1200pt" height="1200pt" version="1.1" viewBox="0 0 1200 1200" xmlns="http://www.w3.org/2000/svg">
 <path d="m570 198c-7.1992-7.1992-18-7.1992-25.199 0l-255.6 252 255.6 252c3.6016 3.6016 8.3984 4.8008 13.199 4.8008s9.6016-1.1992 13.199-4.8008c7.1992-7.1992 7.1992-18 0-25.199l-212.4-208.8h294c117.6 0 213.6 96 213.6 213.6v307.2c0 9.6016 8.3984 18 18 18 9.6016 0 18-8.3984 18-18l-0.003906-307.2c0-138-111.6-249.6-249.6-249.6h-294l211.2-208.8c7.1992-6 7.1992-18 0-25.199z"/>
</svg>
