<?xml version="1.0" encoding="UTF-8"?>
<svg width="1200pt" height="1200pt" version="1.1" viewBox="0 0 1200 1200" xmlns="http://www.w3.org/2000/svg">
 <path d="m1063.1 613.13-120 120c-3.75 3.75-9.375 5.625-13.125 5.625s-9.375-1.875-13.125-5.625c-7.5-7.5-7.5-18.75 0-26.25l120-120c116.25-116.25 116.25-307.5 0-423.74-56.25-56.25-131.26-88.125-211.87-88.125-80.617 0-155.63 31.875-211.87 88.125l-120 118.12c-7.5 7.5-18.75 7.5-26.25 0s-7.5-18.75 0-26.25l120-120c63.75-61.875 148.13-97.5 238.13-97.5s174.37 35.625 238.13 99.375c133.13 131.26 133.13 345 0 476.26zm-356.26 305.63-120 120c-116.25 116.25-307.5 116.25-423.74 0-56.25-56.25-88.125-131.26-88.125-211.87 0-80.617 31.875-155.63 88.125-211.87l120-120c7.5-7.5 7.5-18.75 0-26.25s-18.75-7.5-26.25 0l-120 120c-63.75 61.875-99.375 146.26-99.375 236.26s35.625 174.37 99.375 238.13c65.625 67.5 151.87 99.375 238.13 99.375 86.258 0 172.5-33.75 238.13-99.375l120-120c7.5-7.5 7.5-18.75 0-26.25s-20.625-5.625-26.25 1.875zm144.37-596.26-515.63 515.63c-7.5 7.5-7.5 18.75 0 26.25 3.75 3.75 9.375 5.625 13.125 5.625s9.375-1.875 13.125-5.625l517.5-517.5c7.5-7.5 7.5-18.75 0-26.25s-20.625-5.625-28.125 1.875z"/>
</svg>
