<?xml version="1.0" encoding="UTF-8"?>
<svg width="1200pt" height="1200pt" version="1.1" viewBox="0 0 1200 1200" xmlns="http://www.w3.org/2000/svg">
 <path d="m600 108c-271.2 0-492 220.8-492 492s220.8 492 492 492 492-220.8 492-492-220.8-492-492-492zm0 960c-258 0-468-210-468-468s210-468 468-468 468 210 468 468-210 468-468 468z"/>
 <path d="m600 291.6c7.1992 0 12-4.8008 12-12v-62.398c0-7.1992-4.8008-12-12-12s-12 4.8008-12 12v62.398c0 7.1992 4.8008 12 12 12z"/>
 <path d="m418.8 262.8c-3.6016-6-10.801-7.1992-16.801-4.8008-6 3.6016-7.1992 10.801-4.8008 16.801l9.6016 16.801c3.6016 6 10.801 7.1992 16.801 4.8008 6-3.6016 7.1992-10.801 4.8008-16.801z"/>
 <path d="m291.6 408-16.801-9.6016c-6-3.6016-13.199-1.1992-16.801 4.8008s-1.1992 13.199 4.8008 16.801l16.801 9.6016c6 3.6016 13.199 1.1992 16.801-4.8008 2.3984-6 1.1992-13.199-4.8008-16.801z"/>
 <path d="m291.6 600c0-7.1992-4.8008-12-12-12h-62.398c-7.1992 0-12 4.8008-12 12s4.8008 12 12 12h62.398c7.1992 0 12-4.8008 12-12z"/>
 <path d="m279.6 771.6-16.801 9.6016c-6 3.6016-7.1992 10.801-4.8008 16.801 3.6016 6 10.801 7.1992 16.801 4.8008l16.801-9.6016c6-3.6016 7.1992-10.801 4.8008-16.801-3.6016-6.0039-10.801-8.4023-16.801-4.8008z"/>
 <path d="m424.8 904.8c-6-3.6016-13.199-1.1992-16.801 4.8008l-9.6016 16.801c-3.6016 6-1.1992 13.199 4.8008 16.801s13.199 1.1992 16.801-4.8008l9.6016-16.801c2.3984-7.2031 0-14.402-4.8008-16.801z"/>
 <path d="m600 908.4c-7.1992 0-12 4.8008-12 12v62.398c0 7.1992 4.8008 12 12 12s12-4.8008 12-12v-62.398c0-7.1992-4.8008-12-12-12z"/>
 <path d="m792 908.4c-3.6016-6-10.801-7.1992-16.801-4.8008-6 3.6016-7.1992 10.801-4.8008 16.801l9.6016 16.801c3.6016 6 10.801 7.1992 16.801 4.8008 6-3.6016 7.1992-10.801 4.8008-16.801z"/>
 <path d="m937.2 781.2-16.801-9.6016c-6-3.6016-13.199-1.1992-16.801 4.8008-3.6016 6-1.1992 13.199 4.8008 16.801l16.801 9.6016c6 3.6016 13.199 1.1992 16.801-4.8008 2.3984-6 1.1992-13.199-4.8008-16.801z"/>
 <path d="m908.4 600c0 7.1992 4.8008 12 12 12h62.398c7.1992 0 12-4.8008 12-12s-4.8008-12-12-12h-62.398c-7.1992 0-12 4.8008-12 12z"/>
 <path d="m925.2 398.4-16.801 9.6016c-6 3.6016-7.1992 10.801-4.8008 16.801 3.6016 6 10.801 7.1992 16.801 4.8008l16.801-9.6016c6-3.6016 7.1992-10.801 4.8008-16.801-3.6016-6-10.801-8.3984-16.801-4.8008z"/>
 <path d="m796.8 258c-6-3.6016-13.199-1.1992-16.801 4.8008l-9.6016 16.801c-3.6016 6-1.1992 13.199 4.8008 16.801 6 3.6016 13.199 1.1992 16.801-4.8008l9.6016-16.801c3.5977-6 1.1992-13.199-4.8008-16.801z"/>
 <path d="m639.6 644.4c12-10.801 20.398-26.398 20.398-44.398 0-28.801-20.398-52.801-48-58.801v-169.2c0-7.1992-4.8008-12-12-12s-12 4.8008-12 12v169.2c-27.602 6-48 30-48 58.801 0 33.602 26.398 60 60 60 7.1992 0 13.199-1.1992 19.199-3.6016l52.801 91.199c3.6016 6 10.801 7.1992 16.801 4.8008 6-3.6016 7.1992-10.801 4.8008-16.801zm-75.602-44.398c0-20.398 15.602-36 36-36s36 15.602 36 36-15.602 36-36 36-36-15.602-36-36z"/>
</svg>
