<?xml version="1.0" encoding="UTF-8"?>
<svg width="1200pt" height="1200pt" version="1.1" viewBox="0 0 1200 1200" xmlns="http://www.w3.org/2000/svg">
 <path d="m1064.2 987-154.92-228.72c-0.71875-3-2.3984-5.6406-5.0391-7.3203l-204.48-301.8v-306.84c16.559-2.8789 29.039-17.281 29.039-35.039 0.003907-19.441-15.836-35.281-35.156-35.281h-187.2c-19.32 0-35.16 15.84-35.16 35.762 0 17.281 12.48 31.68 29.039 34.441v306.84l-364.44 538.08c-19.441 29.16-21.121 66.719-4.3203 97.922 14.398 26.879 39.961 42.961 68.16 42.961h800.76c28.199 0 53.762-16.078 68.16-42.961 16.68-31.203 15-68.762-4.4414-98.043zm-569.52-879.84c0-6.4805 5.2812-11.762 11.762-11.762h187.2c6.4805 0 11.762 5.2812 11.762 12.359 0 6.4805-5.2812 11.762-11.762 11.762h-187.2c-6.4766 0-11.758-5.2812-11.758-12.359zm27.121 352.2c0.23828-0.35938 0.23828-0.71875 0.35938-1.0781 0.48047-0.60156 0.71875-1.3203 0.96094-2.1602 0.23828-0.83984 0.48047-1.5586 0.48047-2.3984 0-0.35938 0.23828-0.71875 0.23828-1.0781v-309.61h152.64v309.72c0 0.35938 0.23828 0.71875 0.23828 1.0781 0.12109 0.83984 0.23828 1.5586 0.48047 2.3984 0.23828 0.83984 0.48047 1.5586 0.96094 2.2812 0.12109 0.23828 0.12109 0.71875 0.35938 0.96094l187.92 277.32c-63.238-20.641-144-34.441-219.12 4.1992-6.8398 3.3594-13.559 7.1992-20.52 10.801-43.922 23.398-89.16 47.641-137.16 36.121-27-6.4805-48-21.961-70.199-38.281-20.52-15-41.398-30.359-67.922-39.121zm526.08 614.64c-10.32 19.32-27.602 30.48-47.398 30.48h-800.88c-19.801 0-37.078-11.16-47.398-30.48-12.48-23.281-11.281-52.32 3-73.922l182.4-269.16c25.922 6.8398 46.32 21.719 67.801 37.559 23.16 17.039 47.039 34.559 78.719 42.238 10.68 2.5195 21 3.6016 31.078 3.6016 43.922 0 83.641-21.238 122.4-42 6.8398-3.4805 13.559-7.1992 20.281-10.559 78.84-40.559 164.04-18 230.52 7.8008l156.24 230.4c14.406 21.723 15.727 50.883 3.2461 74.043z"/>
 <path d="m791.52 784.08c-29.879 0-54.238 26.52-54.238 59.281 0 32.641 24.359 59.16 54.238 59.16 30 0 54.359-26.52 54.359-59.16-0.11719-32.758-24.48-59.281-54.359-59.281zm0 94.922c-16.922 0-30.84-15.961-30.84-35.641s13.801-35.762 30.84-35.762c17.039 0 30.84 16.078 30.84 35.762 0 19.68-13.801 35.641-30.84 35.641z"/>
 <path d="m663.96 867.12c-24.121 0-43.68 21.238-43.68 47.281 0 26.16 19.559 47.398 43.68 47.398 24 0 43.559-21.238 43.559-47.398-0.12109-26.043-19.68-47.281-43.559-47.281zm0 71.277c-11.281 0-20.281-10.68-20.281-23.879s9-23.762 20.281-23.762c11.16 0 20.16 10.68 20.16 23.762-0.12109 13.199-9.1211 23.879-20.16 23.879z"/>
 <path d="m754.2 950.28c-21.121 0-38.281 18.48-38.281 41.398 0 22.922 17.16 41.398 38.281 41.398 21.238 0 38.398-18.48 38.398-41.398 0.003906-22.918-17.156-41.398-38.398-41.398zm0 59.277c-8.1602 0-14.879-8.0391-14.879-18 0-9.9609 6.7188-18 14.879-18 8.1602 0 15 8.0391 15 18 0 9.9609-6.7188 18-15 18z"/>
 <path d="m426 697.8 121.8-182.88c3.4805-5.3984 2.1602-12.719-3.2383-16.32-5.3984-3.4805-12.602-2.1602-16.32 3.2383l-121.8 183c-3.4805 5.3984-2.1602 12.719 3.2383 16.199 2.0391 1.4414 4.1992 2.0391 6.4805 2.0391 3.8398-0.11719 7.4414-1.918 9.8398-5.2773z"/>
 <path d="m564.84 404.04c6.4805 0 11.762-5.2812 11.762-11.762v-201.72c0-6.4805-5.2812-11.762-11.762-11.762-6.4805 0-11.762 5.2812-11.762 11.762v201.84c0.12109 6.3633 5.4023 11.641 11.762 11.641z"/>
</svg>
