<?xml version="1.0" encoding="UTF-8"?>
<svg width="1200pt" height="1200pt" version="1.1" viewBox="0 0 1200 1200" xmlns="http://www.w3.org/2000/svg">
 <path d="m718.45 30h-236.91c-13.738 0.015625-26.906 5.4805-36.621 15.195-9.7148 9.7109-15.18 22.883-15.195 36.621v1054.9c0.015625 8.832 3.5273 17.297 9.7734 23.543 6.2422 6.2422 14.711 9.7578 23.539 9.7695h273.91c8.8281-0.011719 17.297-3.5273 23.539-9.7695 6.2461-6.2461 9.7578-14.711 9.7734-23.543v-1054.9c-0.015625-13.738-5.4805-26.91-15.195-36.621-9.7148-9.7148-22.883-15.18-36.621-15.195zm22.211 1106.7c-0.007812 2.0469-1.6641 3.7031-3.707 3.707h-273.91c-2.043-0.003906-3.6992-1.6602-3.707-3.707v-1054.9c0.007812-5.8906 2.3477-11.535 6.5117-15.699 4.1641-4.1641 9.8125-6.5078 15.699-6.5117h236.91c5.8867 0.003906 11.535 2.3477 15.699 6.5117 4.1641 4.1641 6.5039 9.8086 6.5117 15.699z"/>
 <path d="m318.7 562.99h-236.88c-13.738 0.011718-26.906 5.4727-36.621 15.188-9.7148 9.7109-15.18 22.879-15.195 36.617v521.89c0.011719 8.832 3.5273 17.297 9.7695 23.543 6.2461 6.2422 14.711 9.7578 23.543 9.7695h273.89c8.832-0.011719 17.297-3.5273 23.543-9.7695 6.2422-6.2461 9.7578-14.711 9.7695-23.543v-521.89c-0.015625-13.738-5.4805-26.906-15.195-36.617-9.7148-9.7148-22.883-15.176-36.621-15.188zm22.211 573.7c-0.003906 2.0469-1.6602 3.7031-3.707 3.707h-273.89c-2.0469-0.003906-3.7031-1.6602-3.707-3.707v-521.89c0.003906-5.8906 2.3477-11.535 6.5117-15.695 4.1641-4.1641 9.8125-6.5039 15.699-6.5039h236.88c5.8867 0 11.535 2.3398 15.699 6.5039 4.1641 4.1602 6.5078 9.8047 6.5117 15.695z"/>
 <path d="m1118.2 429.76h-236.88c-13.738 0.015626-26.91 5.4766-36.621 15.191-9.7148 9.7148-15.18 22.887-15.195 36.621v655.12c0.011719 8.832 3.5273 17.297 9.7695 23.543 6.2461 6.2422 14.711 9.7578 23.543 9.7695h273.89c8.832-0.011719 17.297-3.5273 23.543-9.7695 6.2422-6.2461 9.7578-14.711 9.7695-23.543v-655.12c-0.015625-13.734-5.4805-26.906-15.195-36.621-9.7109-9.7148-22.883-15.176-36.621-15.191zm22.211 706.93v-0.003906c-0.003906 2.0469-1.6602 3.7031-3.707 3.707h-273.89c-2.0469-0.003906-3.7031-1.6602-3.707-3.707v-655.12c0.003906-5.8867 2.3477-11.535 6.5117-15.699 4.1641-4.1641 9.8086-6.5039 15.699-6.5117h236.88c5.8906 0.007813 11.535 2.3477 15.699 6.5117 4.1641 4.1641 6.5078 9.8125 6.5117 15.699z"/>
</svg>
