<?xml version="1.0" encoding="UTF-8"?>
<svg width="1200pt" height="1200pt" version="1.1" viewBox="0 0 1200 1200" xmlns="http://www.w3.org/2000/svg">
 <path d="m1146.4 365.63-540-202.4c-4.0781-1.5469-8.5312-1.5469-12.609 0l-540.14 202.4c-7.0781 2.625-11.625 9.375-11.625 16.781 0 7.4531 4.6875 14.297 11.625 16.781l213.47 80.062c-14.062 43.078-33.469 108-47.531 176.39-7.4531 35.391-9.6094 69.141-6.7031 100.08 0.84375 9.2344 8.625 16.312 17.859 16.312 2.1562 0 218.16 1.4531 332.76 77.156 11.062 7.3125 23.766 10.922 36.469 10.922s25.453-3.6094 36.469-10.922c47.859-31.547 113.3-50.297 173.53-61.312v96c-34.312 8.1562-60 39-60 75.844v60c0 9.9375 8.0625 18 18 18h120c9.9375 0 18-8.0625 18-18v-60c0-36.844-25.688-67.688-60-75.844v-101.86c68.156-9.7031 122.16-10.078 123.24-10.078 9.2344 0 17.062-7.0781 17.859-16.312 2.8594-30.938 0.70313-64.688-6.7031-100.08-14.062-68.391-33.469-133.45-47.531-176.39l213.47-80.062c7.0781-2.625 11.625-9.375 11.625-16.781 0-7.4531-4.6875-14.297-11.625-16.781zm-276.37 636.37h-84v-42c0-23.156 18.844-42 42-42s42 18.844 42 42zm-286.55-182.63c-105.38-69.609-280.45-81-335.63-82.781-0.46875-18.609 0.9375-38.297 4.3125-58.781h3.7031c1.5469 0 3.1406 0 4.7812 0.23438h1.9219c1.9219 0 4.0781 0.23438 6.2344 0.23438h1.5469c5.5312 0.23438 11.531 0.60938 18 1.0781 0.84375 0 1.6875 0.14062 2.5312 0.23438 2.3906 0.14062 4.7812 0.375 7.3125 0.46875 1.2188 0 2.3906 0.23438 3.6094 0.23438 2.3906 0.23438 4.7812 0.375 7.3125 0.60938 1.2188 0 2.5312 0.23438 3.7031 0.375 2.5312 0.23438 5.0625 0.46875 7.5469 0.70312 1.3125 0.14062 2.625 0.23438 4.0781 0.375 2.8594 0.23438 5.7656 0.60938 8.7656 0.9375 1.0781 0 2.0625 0.23438 3.1406 0.375 4.0781 0.46875 8.2969 0.9375 12.469 1.4531h0.60938c3.9375 0.46875 8.0625 0.9375 12.141 1.5469 1.3125 0.23438 2.625 0.375 4.0781 0.60938 3 0.375 5.8594 0.84375 8.8594 1.3125 1.5469 0.23438 3.2344 0.46875 4.9219 0.70312 2.7656 0.46875 5.625 0.84375 8.5312 1.3125 1.6875 0.23438 3.4688 0.60938 5.1562 0.84375 2.8594 0.46875 5.625 0.9375 8.5312 1.5469 1.6875 0.375 3.375 0.60938 5.0625 0.9375 3.1406 0.60938 6.2344 1.2188 9.375 1.7812 1.4531 0.23438 2.8594 0.60938 4.3125 0.84375 4.5469 0.9375 9.1406 1.9219 13.688 3 0.23438 0 0.60938 0.14062 0.84375 0.23438 4.3125 0.9375 8.5312 2.0625 12.844 3 1.4531 0.375 3 0.70312 4.4531 1.0781 3.1406 0.84375 6.1406 1.5469 9.1406 2.3906 1.6875 0.46875 3.4688 0.9375 5.1562 1.4531 2.7656 0.84375 5.625 1.5469 8.3906 2.3906 1.7812 0.46875 3.4688 1.0781 5.2969 1.5469 2.7656 0.84375 5.5312 1.7812 8.2969 2.625 1.6875 0.60938 3.375 1.0781 5.0625 1.6875 3 0.9375 5.8594 2.0625 8.7656 3.1406 1.4531 0.46875 2.7656 0.9375 4.2188 1.5469 4.2188 1.5469 8.3906 3.2344 12.609 5.0625 0.23438 0 0.375 0.14062 0.46875 0.23438 3.9375 1.6875 7.7812 3.375 11.625 5.1562 1.3125 0.60938 2.5312 1.2188 3.8438 1.9219 2.625 1.3125 5.2969 2.5312 7.9219 3.9375 1.4531 0.70312 2.8594 1.5469 4.3125 2.2969 2.3906 1.3125 4.6875 2.5312 6.9375 3.8438 1.4531 0.84375 2.8594 1.6875 4.3125 2.5312 2.2969 1.3125 4.4531 2.7656 6.6094 4.2188 1.3125 0.84375 2.625 1.6875 3.9375 2.625 2.2969 1.5469 4.4531 3.2344 6.6094 4.7812 1.0781 0.84375 2.1562 1.5469 3.1406 2.3906 3.1406 2.3906 6.1406 4.9219 9.1406 7.5469 3.375 3 8.0625 4.6875 12.469 4.6875 4.4531 0 8.7656-1.6875 12.141-4.6875 2.8594-2.625 5.8594-5.1562 9.1406-7.5469 1.0781-0.84375 2.1562-1.5469 3.1406-2.3906 2.1562-1.6875 4.3125-3.2344 6.6094-4.7812 1.3125-0.84375 2.625-1.6875 3.9375-2.625 2.1562-1.4531 4.3125-2.7656 6.6094-4.2188 1.4531-0.84375 2.7656-1.6875 4.2188-2.5312 2.2969-1.3125 4.6875-2.625 6.9375-3.9375 1.4531-0.70312 2.8594-1.5469 4.3125-2.2969 2.625-1.3125 5.2969-2.625 7.9219-3.9375 1.3125-0.60938 2.5312-1.2188 3.8438-1.7812 3.8438-1.7812 7.7812-3.6094 11.859-5.2969h0.23438c4.2188-1.6875 8.3906-3.375 12.609-5.0625 1.3125-0.46875 2.7656-0.9375 4.0781-1.4531 3-1.0781 5.8594-2.1562 8.8594-3.1406 1.6875-0.60938 3.2344-1.0781 4.9219-1.6875 2.7656-0.9375 5.5312-1.7812 8.3906-2.625 1.6875-0.46875 3.4688-1.0781 5.1562-1.5469 2.8594-0.84375 5.625-1.6875 8.5312-2.5312 1.6875-0.46875 3.375-0.9375 5.0625-1.4531 3.1406-0.84375 6.2344-1.6875 9.375-2.3906 1.4531-0.375 2.8594-0.70312 4.2188-1.0781 4.4531-1.0781 8.7656-2.1562 13.219-3.1406h0.46875c4.5469-1.0781 9.1406-2.0625 13.781-3 1.4531-0.23438 2.7656-0.60938 4.0781-0.84375 3.2344-0.60938 6.375-1.3125 9.6094-1.9219 1.6875-0.375 3.375-0.60938 4.9219-0.9375 2.8594-0.46875 5.7656-1.0781 8.625-1.5469 0.9375-0.14062 2.0625-0.375 3-0.46875v60c-65.625 11.531-138.84 31.922-193.31 68.062-10.078 6.6094-23.156 6.6094-33.234 0zm10.172-217.6c2.0625 0.70312 4.2188 1.2188 6.375 1.2188s4.3125-0.375 6.375-1.2188l203.63-76.312v129.24c-72.703 11.766-155.39 34.078-210 76.312-95.531-73.922-277.22-86.766-340.55-89.062 12.938-58.219 29.297-112.45 41.531-149.86l292.78 109.78zm252.37 84.281c1.5469-0.23438 3.1406-0.375 4.6875-0.60938h0.375c4.2188-0.46875 8.3906-0.9375 12.469-1.4531 1.0781 0 2.0625-0.23438 3-0.375 3-0.375 5.8594-0.60938 8.8594-0.9375 1.3125-0.14063 2.625-0.23438 3.9375-0.375 2.625-0.23438 5.1562-0.46875 7.6875-0.70313 1.2188 0 2.5312-0.23437 3.7031-0.375 2.5312-0.23437 4.9219-0.375 7.3125-0.60937 1.2188 0 2.3906-0.23438 3.4688-0.23438 2.5312-0.23437 4.9219-0.375 7.3125-0.46875 0.84375 0 1.6875-0.14062 2.5312-0.14062 6.4688-0.46875 12.609-0.84375 18-1.0781h1.5469c2.1562 0 4.3125-0.23437 6.2344-0.23437h1.9219c1.6875 0 3.375-0.14063 4.7812-0.23438h3.7031c3.4688 20.531 4.9219 40.219 4.3125 58.781-21.234 0.70313-60.375 2.8594-106.31 9.1406v-59.766zm0-36.516v-137.63l53.156-19.922c12.234 37.547 28.547 91.688 41.531 149.86-21 0.70312-55.078 2.625-94.688 7.5469zm-16.922-169.69-150.61-77.297c4.4531-5.7656 7.0781-12.375 7.0781-20.062 0-32.062-44.297-46.547-85.453-46.547s-85.453 14.625-85.453 46.547 44.297 46.547 85.453 46.547c14.062 0 28.312-1.6875 41.297-5.2969l142.31 73.078-183.61 68.859-488.86-183.14 488.76-183.24 488.76 183.24-259.55 97.312zm-229.08-108c24.938 0 41.531 6.375 47.625 10.547-6.1406 4.3125-22.688 10.547-47.625 10.547s-41.531-6.375-47.625-10.547c6.1406-4.3125 22.688-10.547 47.625-10.547z"/>
</svg>
