<?xml version="1.0" encoding="UTF-8"?>
<svg width="1200pt" height="1200pt" version="1.1" viewBox="0 0 1200 1200" xmlns="http://www.w3.org/2000/svg">
 <path d="m819.84 380.15c-2.7812-2.7656-6.543-4.3203-10.465-4.3203s-7.6836 1.5547-10.465 4.3203l-198.91 198.92-198.91-198.92c-3.7617-3.6602-9.1758-5.0586-14.234-3.6758-5.0625 1.3789-9.0117 5.3359-10.387 10.398-1.3789 5.0625 0.027344 10.477 3.6914 14.23l198.91 198.9-198.91 198.91c-3.7383 3.7422-5.1992 9.1875-3.832 14.297 1.3711 5.1055 5.3594 9.0938 10.465 10.465 5.1094 1.3672 10.555-0.09375 14.297-3.832l198.91-198.91 198.91 198.91c3.7422 3.7383 9.1875 5.1992 14.297 3.832 5.1055-1.3711 9.0938-5.3594 10.465-10.465 1.3672-5.1094-0.09375-10.555-3.832-14.297l-198.91-198.91 198.91-198.9c2.7773-2.7812 4.3359-6.5469 4.3359-10.477s-1.5586-7.6992-4.3359-10.477z"/>
 <path d="m600 30c-151.17 0-296.16 60.055-403.05 166.95s-166.95 251.88-166.95 403.05 60.055 296.16 166.95 403.05 251.88 166.95 403.05 166.95 296.16-60.055 403.05-166.95 166.95-251.88 166.95-403.05c-0.16797-151.12-60.277-296-167.14-402.86s-251.74-166.97-402.86-167.14zm0 1110.4c-143.32 0-280.77-56.934-382.12-158.28s-158.28-238.8-158.28-382.12 56.934-280.77 158.28-382.12 238.8-158.28 382.12-158.28 280.77 56.934 382.12 158.28 158.28 238.8 158.28 382.12c-0.16016 143.27-57.148 280.63-158.46 381.94s-238.66 158.3-381.94 158.46z"/>
</svg>
