<?xml version="1.0" encoding="UTF-8"?>
<svg width="1200pt" height="1200pt" version="1.1" viewBox="0 0 1200 1200" xmlns="http://www.w3.org/2000/svg">
 <path d="m112.85 1090.2 125.86-217.86 0.32422 0.20703h-0.003906c35.527-36.961 83.184-59.891 134.23-64.59 51.055-4.6953 102.09 9.1562 143.77 39.016 65.316 46.523 141.3 75.832 220.94 85.223 79.637 9.3867 160.36-1.4492 234.7-31.508l-11.457-28.566 125.95 218.07-0.003906-0.003906c2.1328 3.6758 2.1289 8.2109-0.003906 11.883s-6.0703 5.918-10.316 5.8867h-953.72c-4.2461 0.03125-8.1836-2.2148-10.316-5.8867-2.1328-3.6719-2.1367-8.207-0.003907-11.883zm369.28-639.57-170.99 296.19c17.969-5.3867 36.43-8.9727 55.109-10.695 68.387-6.3789 136.79 11.953 192.82 51.676 54.574 38.895 117.96 63.609 184.46 71.922s134.02-0.035156 196.48-24.293l-222.14-384.8c-3.2188-5.5234-4.9219-11.801-4.9297-18.195v-330.64c0.03125-3.3633 0.5-6.707 1.3945-9.9492h-228.67c0.89453 3.2422 1.3633 6.5859 1.3945 9.9492v330.64c-0.007813 6.3945-1.7109 12.672-4.9297 18.195zm-359.01 729.97h953.76c30.156-0.039062 58.008-16.148 73.078-42.273 15.066-26.121 15.07-58.297 0.003907-84.422l-364.36-631.2v-320.92c-0.007812-3.3711-0.51562-6.7227-1.5-9.9492h79.613c9.7422 0.18359 19.145-3.5547 26.098-10.379 6.9531-6.8242 10.871-16.156 10.871-25.898 0-9.7422-3.918-19.074-10.871-25.895-6.9531-6.8242-16.355-10.566-26.098-10.383h-527.43c-12.801 0.24219-24.523 7.2109-30.852 18.336-6.332 11.125-6.332 24.762 0 35.887 6.3281 11.125 18.051 18.09 30.852 18.332h79.613c-0.98438 3.2266-1.4922 6.5781-1.5 9.9492v320.92l-364.36 631.22c-15.051 26.125-15.043 58.289 0.023438 84.406 15.066 26.113 42.91 42.223 73.059 42.266z" fill-rule="evenodd"/>
</svg>
