<?xml version="1.0" encoding="UTF-8"?>
<svg width="1200pt" height="1200pt" version="1.1" viewBox="0 0 1200 1200" xmlns="http://www.w3.org/2000/svg">
 <path d="m796.08 589.78-380.53-219.56c-3.6094-2.0625-8.0625-2.0625-11.766 0-3.6094 2.0625-5.8594 6-5.8594 10.219v439.31c0 4.2188 2.2969 8.0625 5.8594 10.219 1.7812 1.0781 3.8438 1.5469 5.8594 1.5469 2.0625 0 4.0781-0.46875 5.8594-1.5469l380.53-219.71c3.6094-2.0625 5.8594-6 5.8594-10.219 0.046875-4.2656-2.2031-8.1094-5.8125-10.266zm-374.63 209.68v-398.9l345.32 199.45z"/>
 <path d="m600 120c-264.71 0-480 215.29-480 480s215.29 480 480 480 480-215.29 480-480-215.29-480-480-480zm0 936.61c-251.76 0-456.61-204.84-456.61-456.61s204.84-456.61 456.61-456.61 456.61 204.84 456.61 456.61-204.84 456.61-456.61 456.61z"/>
</svg>
