<?xml version="1.0" encoding="UTF-8"?>
<svg width="1200pt" height="1200pt" version="1.1" viewBox="0 0 1200 1200" xmlns="http://www.w3.org/2000/svg">
 <path d="m826.53 169.92c90.289 43.488 164.16 110.99 215.46 192.6 51.336 81.684 80.066 177.55 80.066 277.71 0 144.14-58.465 274.68-152.89 369.15-94.465 94.465-225 152.93-369.15 152.93s-274.68-58.465-369.15-152.93c-94.465-94.465-152.93-225-152.93-369.15s58.43-274.68 152.89-369.15c83.125-83.125 194.15-138.35 317.81-150.41l-73.227-54 21.238-28.98 130.82 96.516-115.71 114.19-25.164-25.598 67.32-66.457c-115.85 10.871-219.89 62.426-297.65 140.18-87.949 87.949-142.34 209.48-142.34 343.7 0 134.21 54.398 255.75 142.38 343.7 87.949 87.949 209.48 142.38 343.7 142.38 134.21 0 255.75-54.434 343.7-142.38s142.34-209.48 142.34-343.7c0-93.422-26.711-182.66-74.449-258.59-47.738-75.996-116.57-138.85-200.66-179.36l15.59-32.328zm-449.75 499.72 144 144.04 301-384.99 28.262 22.066-326.05 417.03-172.66-172.7 25.453-25.453z"/>
</svg>
