<?xml version="1.0" encoding="UTF-8"?>
<svg width="1200pt" height="1200pt" version="1.1" viewBox="0 0 1200 1200" xmlns="http://www.w3.org/2000/svg">
 <path d="m858.28 374.26c22.781 20.391 24.75 55.359 4.3594 78.141l-313.64 350.58c-10.5 11.766-25.5 18.469-41.25 18.469h-0.09375c-15.797 0-30.797-6.7969-41.297-18.562l-147.56-166.08c-20.297-22.828-18.234-57.844 4.5938-78.141 22.875-20.297 57.844-18.281 78.141 4.5938l106.36 119.67 272.26-304.31c20.391-22.781 55.406-24.75 78.141-4.3594zm295.22 225.74c0 305.21-248.29 553.5-553.5 553.5s-553.5-248.29-553.5-553.5 248.29-553.5 553.5-553.5 553.5 248.29 553.5 553.5zm-110.72 0c0-244.18-198.66-442.78-442.78-442.78-244.18 0-442.78 198.66-442.78 442.78 0 244.18 198.66 442.78 442.78 442.78 244.18 0 442.78-198.61 442.78-442.78z"/>
</svg>
