<?xml version="1.0" encoding="UTF-8"?>
<svg width="1200pt" height="1200pt" version="1.1" viewBox="0 0 1200 1200" xmlns="http://www.w3.org/2000/svg">
 <path d="m600 30c-314.29 0-570 255.71-570 570s255.71 570 570 570 570-255.71 570-570-255.71-570-570-570zm0 1026c-251.44 0-456-204.56-456-456s204.56-456 456-456 456 204.56 456 456-204.56 456-456 456zm-282.32-657.32c-22.266-22.266-22.266-58.734 0-81s58.734-22.266 81 0 22.266 58.734 0 81c-11.156 11.156-25.781 16.688-40.5 16.688s-29.344-5.5781-40.5-16.688zm-2.3906 201.32c0 31.453-25.781 57.281-57.281 57.281-31.453 0-57.281-25.781-57.281-57.281 0-31.453 25.781-57.281 57.281-57.281 31.453 0 57.281 25.828 57.281 57.281zm342 342c0 31.5-25.781 57.281-57.281 57.281-31.453 0-57.281-25.781-57.281-57.281s25.781-57.281 57.281-57.281c31.453 0 57.281 25.781 57.281 57.281zm225.05-140.68c22.266 22.266 22.266 58.734 0 81-11.156 11.156-25.828 16.688-40.453 16.688-14.672 0-29.391-5.5781-40.547-16.688-22.266-22.266-22.266-58.734 0-81 22.219-22.219 58.688-22.312 81 0zm116.95-201.32c0 31.453-25.781 57.281-57.281 57.281s-57.281-25.781-57.281-57.281c0-31.453 25.781-57.281 57.281-57.281s57.281 25.828 57.281 57.281zm-197.95-201.32c-22.266-22.266-22.266-58.734 0-81 22.219-22.266 58.688-22.312 81 0 22.266 22.266 22.266 58.734 0 81-11.156 11.156-25.828 16.688-40.453 16.688-14.719 0-29.438-5.5781-40.547-16.688zm-161.02 241.64-228 228c-11.156 11.156-25.734 16.688-40.312 16.688s-29.156-5.5781-40.312-16.688c-22.266-22.266-22.266-58.312 0-80.625l211.31-211.26v-318.42c0-31.453 25.547-57 57-57s57 25.547 57 57v342c0 15.141-6 29.625-16.688 40.312z"/>
</svg>
