<?xml version="1.0" encoding="UTF-8"?>
<svg width="1200pt" height="1200pt" version="1.1" viewBox="0 0 1200 1200" xmlns="http://www.w3.org/2000/svg">
 <path d="m588 108c-112.55 0-204 91.5-204 204s91.453 204 204 204 204-91.5 204-204-91.453-204-204-204zm0 24c99.562 0 180 80.438 180 180s-80.438 180-180 180-180-80.438-180-180 80.438-180 180-180zm-0.046875 432c-100.92 0-192.61 14.953-260.48 51.281-67.875 36.328-111.52 95.953-111.52 179.11v218.39h0.046875c0 4.9688 3 9.375 7.5938 11.203 0 0 172.97 68.016 364.36 68.016 191.44 0 364.36-68.016 364.36-68.016h0.046874c4.6406-1.8281 7.6406-6.2344 7.6406-11.203v-218.39c0-83.156-43.688-142.78-111.52-179.11-67.875-36.328-159.52-51.281-260.48-51.281zm0 24c98.531 0 186.84 15.094 249.14 48.469 62.297 33.328 98.906 82.875 98.906 157.97v209.58c-11.344 4.3594-168.84 64.031-348 64.031s-336.66-59.672-348-64.031v-209.58c0-75.047 36.609-124.6 98.859-157.97 62.297-33.328 150.61-48.469 249.14-48.469z"/>
</svg>
