<?xml version="1.0" encoding="UTF-8"?>
<svg width="1200pt" height="1200pt" version="1.1" viewBox="0 0 1200 1200" xmlns="http://www.w3.org/2000/svg">
 <path d="m768.1 596.34h-166.45c-13.266 0-24-10.734-24-24s10.734-24 24-24h166.45zm252.71-447.71c-9.375-9.375-9.375-24.562 0-33.938s24.562-9.375 33.938 0c75.375 75.375 113.06 174.19 113.06 273 0 98.766-37.688 197.58-113.06 272.95-9.375 9.375-24.562 9.375-33.938 0s-9.375-24.562 0-33.938c66-66 99-152.53 99-239.02 0-86.531-33-173.06-99-239.06zm-553.31 987.84c-13.266 0-24-10.734-24-24s10.734-24 24-24h108.52v-110.53c-73.688-5.8594-140.11-38.344-189.56-87.797-54.844-54.75-88.828-130.4-88.828-213.66 0-13.266 10.734-24 24-24s24 10.734 24 24c0 70.031 28.594 133.69 74.672 179.72 46.031 46.078 109.64 74.672 179.76 74.672 69.562 0 132.71-28.125 178.69-73.547l1.0312-1.125c46.078-46.078 74.672-109.69 74.672-179.72 0-13.266 10.734-24 24-24s24 10.734 24 24c0 83.25-33.984 158.9-88.734 213.66l-1.3594 1.2656c-49.359 48.75-115.27 80.719-188.29 86.531v110.53h108.56c13.266 0 24 10.734 24 24s-10.734 24-24 24zm-176.39-875.95c9.375-9.375 24.562-9.375 33.938 0s9.375 24.562 0 33.938c-25.734 25.734-38.625 59.484-38.625 93.234s12.891 67.5 38.625 93.234c9.375 9.375 9.375 24.562 0 33.938s-24.562 9.375-33.938 0c-35.109-35.109-52.688-81.141-52.688-127.18 0-46.031 17.578-92.062 52.688-127.18zm-72.891-72.891c9.375-9.375 24.562-9.375 33.938 0s9.375 24.562 0 33.938c-45.844 45.844-68.812 106.03-68.812 166.18 0 60.145 22.922 120.28 68.812 166.13 9.375 9.375 9.375 24.562 0 33.938s-24.562 9.375-33.938 0c-55.266-55.266-82.875-127.69-82.875-200.06s27.656-144.84 82.875-200.06zm-72.891-72.891c9.375-9.375 24.562-9.375 33.938 0s9.375 24.562 0 33.938c-66 66-99 152.53-99 239.06 0 86.484 33 173.02 98.953 239.02 9.375 9.375 9.375 24.609 0.046875 33.938-9.375 9.375-24.562 9.375-33.938 0-75.422-75.422-113.11-174.19-113.11-272.95s37.688-197.58 113.06-272.95zm729.74 179.72c-9.375-9.375-9.375-24.562 0-33.938s24.562-9.375 33.938 0c35.109 35.109 52.688 81.141 52.688 127.18 0 45.984-17.578 92.062-52.688 127.18-9.375 9.375-24.562 9.375-33.938 0s-9.375-24.562 0-33.938c25.734-25.734 38.578-59.484 38.578-93.234s-12.891-67.5-38.578-93.234zm72.891-72.984c-9.3281-9.375-9.2812-24.516 0.09375-33.844 9.375-9.3281 24.516-9.2812 33.844 0.09375 55.219 55.266 82.875 127.64 82.875 200.02 0 72.328-27.656 144.74-82.875 199.97-9.3281 9.375-24.469 9.375-33.844 0.09375-9.375-9.3281-9.375-24.469-0.09375-33.844 45.844-45.844 68.812-106.03 68.812-166.22 0-60.191-22.969-120.37-68.812-166.22zm-179.81 280.6h-166.45c-13.266 0-24-10.734-24-24s10.734-24 24-24h166.45zm0-94.312h-166.45c-13.266 0-24-10.734-24-24s10.734-24 24-24h166.45zm0-94.312h-166.45c-13.266 0-24-10.734-24-24s10.734-24 24-24h165.84c0.375 4.6875 0.60938 9.4219 0.60938 14.203zm-335.58-48h76.688c13.266 0 24 10.734 24 24s-10.734 24-24 24h-77.297v-33.797c0-4.7812 0.23438-9.5156 0.60938-14.203zm-0.60938 94.312h77.297c13.266 0 24 10.734 24 24s-10.734 24-24 24h-77.297zm0 94.312h77.297c13.266 0 24 10.734 24 24s-10.734 24-24 24h-77.297zm0 94.312h77.297c13.266 0 24 10.734 24 24s-10.734 24-24 24h-77.297zm0 94.359h77.297c13.266 0 24 10.734 24 24s-10.734 24-24 24h-76.688c-0.42188-4.6875-0.60938-9.4688-0.60938-14.25v-33.797zm335.58 48h-165.84c-13.266 0-24-10.734-24-24s10.734-24 24-24h166.45v33.797c0 4.7812-0.1875 9.5156-0.60938 14.25zm48.609-411.05v396.79c0 59.438-24.328 113.48-63.469 152.63-39.234 39.141-93.281 63.469-152.63 63.469-59.438 0-113.48-24.328-152.63-63.469-39.141-39.141-63.469-93.188-63.469-152.63v-396.79c0-59.438 24.328-113.48 63.469-152.63 39.141-39.141 93.188-63.469 152.63-63.469 59.441 0 113.48 24.328 152.63 63.469 39.141 39.141 63.469 93.188 63.469 152.63z" fill-rule="evenodd"/>
</svg>
