<?xml version="1.0" encoding="UTF-8"?>
<svg width="1200pt" height="1200pt" version="1.1" viewBox="0 0 1200 1200" xmlns="http://www.w3.org/2000/svg">
 <path d="m1103.6 488.44h-57.938v-19.688c0-9.9375-7.6875-18.188-17.625-18.75l-253.31-15.75c12.75-26.062 20.625-54.75 23.062-84.562 0.1875-1.6875-0.375-3.1875-0.5625-4.875 0.375-4.875 0.5625-9.75 0.5625-14.625 0-3.375 0-6.5625-0.1875-8.8125 0-1.6875 0-3.375-0.1875-5.4375s-0.1875-3.9375-0.375-6c0-1.125-0.1875-2.4375-0.375-3.5625-0.1875-2.25-0.375-4.5-0.75-6.5625-0.375-3.375-0.9375-6.75-1.6875-10.875-0.1875-0.5625-0.1875-1.125-0.1875-1.6875-0.1875-1.6875-0.5625-3.1875-0.75-4.3125-0.1875-0.75-0.1875-1.125-0.375-1.5-0.5625-3.1875-1.3125-6.5625-1.875-8.625-0.5625-2.625-1.3125-5.4375-2.0625-8.0625 0-0.375-0.1875-0.5625-0.1875-0.9375-0.75-2.4375-1.5-4.6875-2.4375-8.0625-1.125-3.375-2.25-6.5625-3.375-9.9375-1.3125-3.5625-2.625-6.9375-3.75-9.375-1.125-2.625-2.25-5.25-3-6.75-0.75-1.6875-1.5-3.375-2.25-4.875-0.375-0.9375-0.9375-1.875-1.6875-3.1875 0-0.1875-0.1875-0.375-0.1875-0.5625-0.5625-1.3125-1.3125-2.625-2.625-4.875-3.1875-6-6.75-11.812-10.125-16.688-1.5-2.25-3-4.3125-3.9375-5.625-1.3125-1.875-2.625-3.75-4.125-5.625-2.8125-3.75-5.8125-7.3125-8.4375-10.312l-0.375-0.375c-1.6875-1.875-3.375-3.9375-5.0625-5.4375-1.875-2.0625-3.75-3.9375-5.0625-5.25l-0.375-0.375c-1.875-1.875-3.75-3.75-5.625-5.4375-3.75-3.375-7.6875-6.75-12-10.312-0.1875-0.1875-0.1875-0.5625-0.5625-0.75-0.75-0.75-2.4375-2.0625-3.1875-2.625l-7.6875-4.875c-2.0625-1.3125-4.125-2.625-5.625-3.5625-2.8125-1.6875-5.625-3.5625-8.625-5.0625-13.688-7.5-28.312-13.125-42.938-16.688-2.25-0.5625-4.875-1.125-7.6875-1.6875 0 0-0.5625-0.1875-1.125-0.1875-1.3125-0.375-2.8125-0.5625-4.125-0.75-0.5625-0.1875-0.9375-0.1875-1.5-0.375-3-0.5625-5.8125-0.9375-7.5-0.9375-0.5625 0-1.125 0-1.5-0.1875-1.6875-0.1875-3.1875-0.375-4.6875-0.5625h-1.125c-1.3125-0.1875-3-0.375-5.25-0.375-2.8125-0.1875-5.4375-0.1875-8.0625-0.1875h-1.125c-0.75 0-1.3125 0.375-2.0625 0.375s-1.3125-0.375-2.0625-0.375h-0.9375c-2.8125 0-5.4375 0.1875-9.375 0.375-1.3125 0-2.625 0.1875-3.9375 0.375-2.625 0-4.875 0.375-6.1875 0.5625-3 0.1875-5.8125 0.5625-8.8125 1.125-0.5625 0-0.9375 0.1875-1.5 0.375-1.3125 0.1875-2.8125 0.375-4.125 0.75-0.5625 0.1875-1.3125 0.1875-1.5 0.1875-2.4375 0.5625-5.0625 1.125-7.125 1.6875-14.812 3.75-29.438 9.375-43.125 16.688-2.8125 1.5-5.625 3.1875-8.0625 4.6875l-6.1875 3.9375-7.3125 5.25c-0.9375 0.75-2.8125 2.0625-3.75 3-0.1875 0.1875-0.1875 0.375-0.375 0.75h-0.1875c-4.125 3.1875-8.0625 6.5625-11.625 9.9375l-0.1875 0.1875c-1.875 1.6875-3.75 3.5625-5.25 5.0625-1.875 1.875-3.75 3.75-5.4375 5.625-1.875 2.0625-3.75 4.125-5.0625 5.625l-0.375 0.375c-3 3.375-5.8125 6.75-8.4375 10.5-1.5 1.875-2.8125 3.75-3.375 4.6875-1.6875 2.0625-3.1875 4.3125-4.125 6-3.375 4.875-6.5625 10.125-9.9375 16.125-0.1875 0.1875-0.1875 0.375-0.375 0.5625l-0.5625 0.9375c-0.1875 0.1875-0.1875 0.375-0.375 0.5625-0.75 1.3125-1.5 2.625-1.6875 3.375-0.75 1.3125-1.5 2.8125-2.0625 4.3125-0.75 1.6875-1.6875 3.1875-1.875 4.125-1.3125 2.4375-2.4375 5.0625-3 6.75 0 0.1875-0.1875 0.1875-0.1875 0.375-1.3125 3-2.625 6.1875-3.9375 9.75-1.125 3.1875-2.4375 6.5625-3.75 10.875-0.75 2.4375-1.5 4.6875-2.25 7.125 0 0.375-0.1875 0.5625-0.1875 0.9375-0.75 2.625-1.5 5.25-1.6875 6.9375-0.9375 3.1875-1.5 6.375-1.875 8.4375-0.375 1.5-0.75 3.1875-1.3125 6.5625-0.75 4.3125-1.5 8.625-1.875 12.75-0.375 2.25-0.5625 4.5-0.75 6.75-0.1875 1.125-0.1875 2.25-0.375 3.5625-0.1875 2.0625-0.375 3.9375-0.5625 6.5625 0 1.6875-0.1875 3.375-0.1875 3.9375-0.1875 3.1875-0.1875 6.5625-0.1875 9.75 0 4.875 0.375 9.75 0.5625 14.625-0.375 1.5-0.75 3.1875-0.5625 4.875 2.25 29.812 10.312 58.5 23.062 84.562l-253.69 15.188c-9.9375 0.5625-17.625 8.8125-17.625 18.75v19.688h-57.938c-10.312 0-18.75 8.4375-18.75 18.75v629.06c0 10.312 8.4375 18.75 18.75 18.75h1007.3c10.312 0 18.75-8.4375 18.75-18.75v-629.06c0-10.312-8.4375-18.75-18.75-18.75zm-95.438-2.0625v540.19l-70.688-11.625c-108.75-18.375-218.26-4.5-318.56 39.375v-364.87h45.938c18.938 0 34.125-15.375 34.125-34.125 0-0.1875-0.1875-0.375-0.1875-0.5625s0.1875-0.375 0.1875-0.5625v-47.25c0-7.5-4.5-14.062-10.875-16.875v-27.188c0.5625-10.875 7.3125-27.562 52.125-76.688 4.5-4.875 8.625-10.125 12.75-15.375zm-402.94 165.56h-0.75c-0.75 0-1.5 0.375-2.25 0.375s-1.5-0.375-2.25-0.375-1.5 0.375-2.25 0.375c-0.75-0.1875-1.5-0.375-2.25-0.375h-56.25v-26.438h121.13v26.438zm-165.37-330.56 0.1875-3c0.1875-1.875 0.1875-3.5625 0.375-6.5625 0.1875-0.75 0.1875-1.3125 0.1875-2.0625 0.1875-1.6875 0.375-3.375 0.5625-5.25 0.375-3 0.9375-6.1875 1.5-9.5625 0.1875-0.9375 0.1875-1.6875 0.5625-2.8125l0.75-3.9375c0.375-2.25 0.9375-4.5 1.6875-7.6875 0.375-2.0625 0.9375-3.9375 1.5-6 0-0.1875 0.1875-0.5625 0.1875-0.75l2.0625-6.9375c0.9375-2.8125 1.875-5.4375 2.8125-8.0625 1.125-2.625 2.0625-5.25 3.375-8.25 0.75-1.6875 1.5-3.375 2.625-5.8125l5.4375-10.688c2.4375-4.6875 5.25-9.1875 8.625-14.25 0.9375-1.5 1.875-2.8125 3.5625-5.0625 0.75-1.125 1.6875-2.4375 2.625-3.5625 2.0625-2.8125 4.3125-5.625 7.125-8.625 1.3125-1.5 2.625-3 4.3125-4.6875 1.3125-1.5 2.625-2.8125 4.3125-4.5 1.5-1.5 3-2.8125 4.5-4.3125 3-2.8125 6-5.25 9.375-7.875 0.375-0.375 0.75-0.5625 1.125-0.9375l2.8125-2.0625 4.5-3.375c2.25-1.5 4.5-2.8125 6.75-4.3125 2.25-1.3125 4.3125-2.625 6.5625-3.9375 10.875-6 22.312-10.312 34.312-13.312h0.1875c1.5-0.375 3-0.75 5.4375-1.3125 0.75 0 2.625-0.375 3.375-0.5625 0.375 0 0.75-0.1875 1.125-0.1875h0.375c0.375 0 0.5625 0 0.9375-0.1875 1.875-0.375 3.75-0.5625 6.5625-0.9375 1.5 0 2.8125 0 4.125-0.1875h1.125l3.1875-0.1875h3.375c1.3125 0 2.4375-0.1875 3.75-0.1875 0.75 0 1.3125-0.375 2.0625-0.375s1.3125 0.375 2.0625 0.375c2.25 0 4.5 0 6.75 0.1875l4.6875 0.375c1.6875 0 3 0 5.4375 0.375 1.875 0.1875 3.75 0.375 5.625 0.75 0.375 0 0.5625 0.1875 0.9375 0.1875h0.375c0.1875 0 2.0625 0.375 2.25 0.375 0.375 0.1875 2.625 0.5625 3.1875 0.75 1.6875 0.1875 3.1875 0.75 4.875 1.125 11.812 3 23.25 7.3125 34.125 13.312 2.0625 1.125 4.125 2.25 6.75 3.9375 2.25 1.3125 4.5 2.8125 6.375 4.125 1.5 1.125 3.1875 2.25 4.875 3.5625l3.1875 2.4375c3.1875 2.625 6.5625 5.25 9.9375 8.4375 1.5 1.3125 2.8125 2.625 4.6875 4.5 1.3125 1.3125 2.625 2.8125 4.3125 4.5 1.3125 1.3125 2.4375 2.625 4.125 4.5 2.4375 2.8125 4.6875 5.625 7.125 8.625 0.9375 1.125 1.875 2.4375 3.1875 4.5 0.9375 1.3125 2.0625 2.625 3.1875 4.6875 3 4.3125 5.625 8.625 8.25 13.688 0.1875 0.1875 0.1875 0.375 0.375 0.75l5.4375 10.875c0.75 1.6875 1.5 3.1875 2.4375 5.4375 1.125 2.625 2.25 5.25 3.1875 7.6875 0.9375 2.625 2.0625 5.4375 3.1875 9.1875l1.875 6c0 0.1875 0.1875 0.5625 0.1875 0.75 0.5625 1.875 1.125 3.9375 1.875 6.9375 0.5625 2.0625 1.125 4.3125 1.6875 7.6875l0.75 4.125c0.75 3.5625 1.125 7.3125 1.6875 11.062 0.1875 1.6875 0.375 3.375 0.75 6.1875 0 0.5625 0 1.3125 0.1875 1.875 0.1875 1.875 0.375 3.5625 0.375 5.4375l0.1875 3.75c0.1875 2.625 0.1875 5.25 0.1875 7.875 0 49.5-17.25 95.812-48.75 130.5-44.812 49.125-60.375 74.438-61.688 99.938 0 0.75-0.1875 2.625-0.1875 27.375h-6v-115.88c0-42.562 10.875-84.562 31.312-121.87l2.25-3.9375c5.0625-9 1.6875-20.438-7.3125-25.5s-20.438-1.6875-25.5 7.3125l-2.25 3.9375c-23.625 43.125-36.188 91.5-36.188 140.26v115.88h-12.375v-109.5c0-53.25-14.625-105.38-42.375-150.94-5.4375-8.8125-16.875-11.625-25.688-6.1875s-11.625 16.875-6.1875 25.688c24.188 39.562 36.938 85.125 36.938 131.44v109.5h-6c0-24.75-0.1875-26.625-0.1875-27.375-1.3125-25.688-16.875-50.812-61.688-99.938-31.5-34.5-48.75-80.812-48.75-130.5-0.1875-2.625-0.1875-5.25 0-8.8125zm-248.06 437.26v-272.25l255.37-15.938c3.9375 5.25 8.25 10.5 12.75 15.375 44.812 49.125 51.562 65.812 52.125 76.312v27.562c-6.375 3-10.875 9.375-10.875 16.875v47.25c0 0.1875 0.1875 0.375 0.1875 0.5625s-0.1875 0.375-0.1875 0.5625c0 18.938 15.375 34.125 34.125 34.125h45.938v313.5c0 0.375-0.1875 0.75-0.1875 1.125v50.25c-100.31-43.875-209.81-57.562-318.56-39.375l-70.688 12zm893.06 359.06h-969.74v-591.74h39.188v523.12c0 0.9375 0.375 1.6875 0.5625 2.4375 0.1875 1.875 0.5625 3.5625 1.125 5.25l1.125 1.6875c0.9375 1.6875 2.0625 3.375 3.5625 4.6875 0.375 0.375 0.9375 0.5625 1.3125 0.9375 1.5 1.125 3.1875 2.0625 5.25 2.8125 0.75 0 1.5 0 2.4375 0.1875 1.125 0.1875 2.0625 0.75 3.375 0.75 0.5625 0 1.125-0.375 1.6875-0.375s0.9375 0.1875 1.5 0l92.625-15.562c110.81-18.75 222.37-2.0625 322.87 48.188 0.1875 0.1875 0.5625 0 0.75 0.1875 2.4375 1.125 4.875 1.6875 7.5 1.6875s5.0625-0.75 7.5-1.6875c0.1875-0.1875 0.5625 0 0.75-0.1875 100.5-50.25 212.06-66.938 322.87-48.188l92.625 15.562c1.125 0.1875 2.0625 0.1875 3.1875 0.1875h0.1875c10.312 0 18.75-8.4375 18.75-18.75v-522.75h39.188v591.56z"/>
 <path d="m252.19 723.37c1.6875-0.375 177.94-35.625 252.74 20.062 3.375 2.4375 7.3125 3.75 11.25 3.75 5.8125 0 11.438-2.625 15-7.5 6.1875-8.25 4.5-20.062-3.9375-26.25-88.5-65.625-274.87-28.5-282.74-26.812-10.125 2.0625-16.688 12-14.625 22.125 2.25 10.125 12 16.688 22.312 14.625z"/>
 <path d="m251.63 813.94c58.688-10.125 224.81-26.438 287.26 20.062 3.375 2.4375 7.3125 3.75 11.25 3.75 5.8125 0 11.438-2.625 15-7.5 6.1875-8.25 4.5-20.062-3.9375-26.25-88.125-65.625-306.74-28.5-316.13-26.812-10.125 1.6875-17.062 11.438-15.188 21.75 1.6875 9.9375 11.438 16.875 21.75 15z"/>
 <path d="m538.87 924.56c3.375 2.4375 7.3125 3.75 11.25 3.75 5.8125 0 11.438-2.625 15-7.5 6.1875-8.25 4.5-20.062-3.9375-26.25-88.125-65.625-306.74-28.5-316.13-26.812-10.125 1.6875-17.062 11.438-15.188 21.75 1.6875 10.125 11.438 17.062 21.75 15.188 58.688-10.312 224.63-26.625 287.26 19.875z"/>
 <path d="m668.81 739.69c3.75 4.875 9.375 7.5 15 7.5 3.9375 0 7.875-1.125 11.25-3.75 75-55.688 251.06-20.438 252.74-20.062 10.125 2.0625 20.062-4.5 22.125-14.625s-4.5-20.062-14.625-22.125c-7.875-1.6875-194.26-39-282.74 26.812-8.25 6.1875-9.9375 17.812-3.75 26.25z"/>
 <path d="m954.94 777c-9.1875-1.6875-227.81-38.625-316.13 26.812-8.25 6.1875-10.125 18-3.9375 26.25 3.75 4.875 9.375 7.5 15 7.5 3.9375 0 7.875-1.125 11.25-3.75 62.438-46.5 228.56-30.188 287.26-20.062 10.125 1.6875 19.875-5.0625 21.75-15.188s-5.0625-19.688-15.188-21.562z"/>
 <path d="m954.94 867.56c-9.375-1.6875-227.81-38.625-316.13 26.812-8.25 6.1875-10.125 18-3.9375 26.25 3.75 4.875 9.375 7.5 15 7.5 3.9375 0 7.875-1.125 11.25-3.75 62.438-46.5 228.56-30.188 287.26-20.062 10.125 1.6875 19.875-5.0625 21.75-15.188s-5.0625-19.688-15.188-21.562z"/>
 <path d="m579.37 63.562v14.438c0 10.312 8.4375 18.75 18.75 18.75s18.75-8.4375 18.75-18.75v-14.438c0-10.312-8.4375-18.75-18.75-18.75s-18.75 8.4375-18.75 18.75z"/>
 <path d="m774 128.81-10.125 10.125c-7.3125 7.3125-7.3125 19.125 0 26.438 3.75 3.75 8.4375 5.4375 13.312 5.4375s9.5625-1.875 13.312-5.4375l10.125-10.125c7.3125-7.3125 7.3125-19.125 0-26.438s-19.125-7.3125-26.625 0z"/>
 <path d="m408.94 539.06c4.875 0 9.5625-1.875 13.312-5.4375l10.125-10.125c7.3125-7.3125 7.3125-19.125 0-26.438s-19.125-7.3125-26.438 0l-10.125 10.125c-7.3125 7.3125-7.3125 19.125 0 26.438 3.5625 3.5625 8.4375 5.4375 13.125 5.4375z"/>
 <path d="m851.26 349.87h14.438c10.312 0 18.75-8.4375 18.75-18.75s-8.4375-18.75-18.75-18.75h-14.438c-10.312 0-18.75 8.4375-18.75 18.75s8.4375 18.75 18.75 18.75z"/>
 <path d="m345 312.37h-14.438c-10.312 0-18.75 8.4375-18.75 18.75s8.4375 18.75 18.75 18.75h14.438c10.312 0 18.75-8.4375 18.75-18.75s-8.25-18.75-18.75-18.75z"/>
 <path d="m774 533.63c3.75 3.5625 8.4375 5.4375 13.312 5.4375s9.5625-1.875 13.312-5.4375c7.3125-7.3125 7.3125-19.125 0-26.438l-10.125-10.125c-7.3125-7.3125-19.125-7.3125-26.438 0s-7.3125 19.125 0 26.438z"/>
 <path d="m422.26 128.81c-7.3125-7.3125-19.125-7.3125-26.438 0s-7.3125 19.125 0 26.438l10.125 10.125c3.75 3.75 8.4375 5.4375 13.312 5.4375s9.5625-1.875 13.312-5.4375c7.3125-7.3125 7.3125-19.125 0-26.438z"/>
</svg>
